<?xml version="1.0" encoding="utf-8"?>
<svg viewBox="0 0 22 22" xmlns="http://www.w3.org/2000/svg">
  <path d="M 10.733 0.057 C 10.394 0.174 10.128 0.435 9.981 0.792 L 9.909 0.967 L 9.899 4.492 L 9.894 8.017 L 9.598 8.188 C 9.44 8.284 9.037 8.515 8.705 8.709 C 8.374 8.901 7.366 9.485 6.469 10.008 C 3.131 11.951 2.152 12.522 1.216 13.064 L 0.259 13.616 L 0.256 14.25 C 0.246 15.72 0.25 16.138 0.263 16.151 C 0.272 16.164 1.737 15.714 5.265 14.614 C 5.779 14.455 6.286 14.297 6.39 14.265 C 6.495 14.233 7.297 13.986 8.172 13.713 C 9.046 13.441 9.775 13.219 9.795 13.219 C 9.82 13.219 9.83 13.961 9.83 15.752 L 9.83 18.285 L 9.003 18.928 C 8.545 19.283 8.048 19.673 7.893 19.794 L 7.61 20.009 L 7.61 21.004 C 7.61 21.753 7.62 22 7.648 22 C 7.684 22 8.457 21.766 9.212 21.524 C 9.37 21.474 9.782 21.347 10.131 21.239 C 10.48 21.131 10.826 21.027 10.898 21.002 C 11.043 20.954 10.828 20.894 13.561 21.743 C 14.017 21.883 14.404 22 14.423 22 C 14.448 22 14.458 21.692 14.458 21.004 L 14.458 20.013 L 14.261 19.858 C 14.087 19.724 13.704 19.423 12.937 18.814 C 12.822 18.725 12.626 18.57 12.502 18.468 L 12.27 18.288 L 12.27 15.755 C 12.27 14.078 12.28 13.219 12.303 13.219 C 12.331 13.219 12.629 13.311 14.331 13.853 C 14.654 13.955 15.489 14.221 16.186 14.439 C 16.883 14.661 17.682 14.912 17.961 15.001 C 21.058 15.987 21.705 16.186 21.727 16.168 C 21.739 16.158 21.746 15.587 21.743 14.9 L 21.733 13.654 L 20.529 12.944 C 19.866 12.554 18.731 11.885 18.008 11.46 C 17.285 11.035 15.716 10.11 14.521 9.405 L 12.35 8.128 L 12.334 4.546 C 12.315 0.565 12.334 0.84 12.097 0.488 C 11.884 0.168 11.554 0 11.136 0 C 10.99 0.003 10.828 0.025 10.733 0.057 Z" fill="#000000" stroke="none"/>
</svg>