<?xml version="1.0" encoding="utf-8"?>
<svg viewBox="0 0 22 22" xmlns="http://www.w3.org/2000/svg">
  <path d="M 11.119 1.844 C 10.812 1.922 10.651 2.044 10.505 2.307 C 10.31 2.653 10.251 3.038 10.222 4.141 L 10.198 5.17 L 8.799 5.228 C 8.032 5.262 7.087 5.306 6.697 5.335 C 6.307 5.36 5.145 5.404 4.112 5.428 C 1.347 5.501 1.034 5.551 0.532 6.014 C 0.166 6.355 -0.009 6.818 0 7.452 C 0.01 8.248 0.332 8.872 0.936 9.271 C 1.756 9.822 2.371 9.895 6.502 9.964 C 9.003 10.007 10.173 10.056 10.246 10.129 C 10.256 10.144 10.285 10.598 10.31 11.144 C 10.417 13.661 10.505 15.602 10.529 16.158 C 10.539 16.494 10.563 16.879 10.578 17.015 L 10.607 17.264 L 9.613 17.293 C 8.071 17.342 7.35 17.479 7.048 17.776 C 6.643 18.167 6.74 19.02 7.208 19.269 C 7.501 19.42 7.94 19.468 9.31 19.503 L 10.685 19.537 L 10.709 19.732 C 10.744 20 10.88 20.122 11.134 20.122 C 11.383 20.122 11.437 20.068 11.5 19.776 L 11.549 19.546 L 13.158 19.522 C 14.675 19.498 14.782 19.488 14.996 19.39 C 15.313 19.244 15.479 18.986 15.508 18.581 C 15.542 18.172 15.469 17.951 15.23 17.766 C 14.845 17.464 14.114 17.327 12.621 17.284 L 11.695 17.254 L 11.705 17.108 C 11.773 16.114 11.915 13.778 12.041 11.549 C 12.085 10.769 12.124 10.129 12.129 10.124 C 12.183 10.061 13.489 10.003 15.645 9.964 C 17.069 9.934 18.415 9.89 18.644 9.861 C 19.483 9.754 19.654 9.725 20.034 9.627 C 20.804 9.422 21.449 9.018 21.736 8.55 C 22.116 7.94 22.097 6.838 21.692 6.248 C 21.439 5.873 20.892 5.619 20.156 5.53 C 19.927 5.501 19.005 5.467 18.107 5.452 C 17.21 5.438 16.103 5.404 15.645 5.374 C 15.191 5.35 14.387 5.306 13.865 5.282 C 13.343 5.253 12.811 5.218 12.69 5.204 L 12.46 5.175 L 12.436 4.044 C 12.407 2.873 12.358 2.507 12.178 2.229 C 12.012 1.976 11.851 1.878 11.476 1.805 C 11.408 1.791 11.247 1.81 11.119 1.844 Z" fill="#000000" stroke="none"/>
</svg>