<?xml version="1.0" encoding="utf-8"?>
<svg viewBox="0 0 22 22" xmlns="http://www.w3.org/2000/svg">
  <path d="M 10.889 0.001 L 11.011 0 L 11.239 0.363 L 11.486 0.915 L 11.632 1.347 L 11.726 1.66 L 11.827 1.987 L 11.918 2.311 L 11.968 2.704 L 12.045 3.087 L 12.104 3.523 L 12.178 4.079 L 12.22 9.074 L 12.205 9.58 L 15.584 10.56 L 17.672 11.167 L 18.51 11.155 L 18.555 9.571 L 18.596 9.064 L 18.671 8.816 L 18.745 8.584 L 18.822 8.418 L 18.965 8.271 L 19.014 8.259 L 19.07 8.3 L 19.176 8.406 L 19.261 8.587 L 19.321 8.793 L 19.381 9.012 L 19.417 9.139 L 19.438 9.262 L 19.464 9.481 L 19.477 9.898 L 19.472 11.182 L 19.472 12.162 L 19.472 12.92 L 19.442 13.119 L 19.406 13.307 L 19.375 13.44 L 19.349 13.531 L 19.319 13.587 L 19.326 13.678 L 19.771 14.42 L 19.765 14.613 L 19.732 14.664 L 19.071 14.673 L 19.058 14.712 L 18.971 14.712 L 18.883 14.408 L 18.671 13.651 L 18.195 13.659 L 18.134 13.62 L 17.491 13.625 L 17.451 13.594 L 16.595 13.594 L 16.567 13.574 L 16.045 13.569 L 16.021 13.535 L 15.138 13.539 L 15.116 13.51 L 14.173 13.508 L 14.148 13.484 L 13.471 13.48 L 13.463 13.781 L 13.437 13.813 L 13.433 14.1 L 13.397 14.089 L 13.4 14.428 L 13.372 14.416 L 13.377 14.58 L 13.343 14.583 L 13.322 14.952 L 13.277 15.16 L 13.218 15.441 L 13.162 15.679 L 13.024 15.705 L 12.935 15.857 L 12.585 15.873 L 12.486 15.816 L 12.445 15.714 L 12.387 15.709 L 12.386 15.837 L 12.342 15.833 L 12.338 16.301 L 12.287 16.372 L 11.743 16.372 L 11.71 16.786 L 11.676 17.134 L 11.646 17.408 L 11.613 17.684 L 11.589 17.917 L 11.488 18.726 L 11.457 18.956 L 11.426 19.197 L 14.156 20.691 L 14.259 20.798 L 14.338 21.018 L 14.341 21.998 L 14.101 21.992 L 11.133 21.382 L 11.117 21.494 L 11.036 21.571 L 10.939 21.523 L 10.903 21.374 L 10.788 21.387 L 7.799 22 L 7.73 21.951 L 7.728 20.979 L 7.81 20.813 L 7.981 20.634 L 8.858 20.157 L 9.714 19.656 L 10.283 19.347 L 10.615 19.14 L 10.359 17.248 L 10.258 16.363 L 9.699 16.299 L 9.659 15.999 L 9.635 15.824 L 9.625 15.709 L 9.578 15.676 L 9.534 15.71 L 9.515 15.798 L 9.466 15.834 L 9.409 15.876 L 9.091 15.88 L 9.054 15.826 L 9.023 15.734 L 8.941 15.728 L 8.875 15.654 L 8.845 15.558 L 8.825 15.409 L 8.793 15.226 L 8.76 15.098 L 8.745 14.936 L 8.717 14.768 L 8.67 14.547 L 8.641 14.298 L 8.602 13.941 L 8.599 13.49 L 8.475 13.495 L 7.869 13.512 L 7.196 13.536 L 6.44 13.581 L 5.688 13.589 L 5.078 13.63 L 4.316 13.686 L 3.619 13.673 L 3.614 13.712 L 3.353 13.696 L 3.303 13.901 L 3.074 14.794 L 2.994 14.812 L 2.966 14.766 L 2.85 14.765 L 2.563 14.772 L 2.287 14.76 L 2.242 14.661 L 2.2 14.572 L 2.399 14.208 L 2.693 13.76 L 2.683 13.534 L 2.619 13.436 L 2.615 13.297 L 2.573 13.15 L 2.54 12.916 L 2.547 11.432 L 2.535 9.765 L 2.57 9.323 L 2.599 9.172 L 2.61 9.081 L 2.665 8.843 L 2.776 8.597 L 2.897 8.376 L 2.937 8.314 L 2.998 8.294 L 3.081 8.324 L 3.147 8.397 L 3.218 8.512 L 3.328 8.803 L 3.417 9.211 L 3.453 9.503 L 3.452 11.209 L 4.31 11.21 L 4.678 11.091 L 6.205 10.631 L 7.875 10.135 L 9.066 9.794 L 9.766 9.575 L 9.771 9.406 L 9.744 9.376 L 9.737 8.291 L 9.74 7.295 L 9.75 5.864 L 9.744 4.427 L 9.78 3.74 L 9.911 2.865 L 10.019 2.332 L 10.148 1.79 L 10.268 1.39 L 10.443 0.954 L 10.553 0.704 L 10.742 0.294 L 10.889 0.001 Z" style=""/>
</svg>