<?xml version="1.0" encoding="utf-8"?>
<svg viewBox="0 0 22 22" xmlns="http://www.w3.org/2000/svg">
  <path d="M 9.972 7.059 L 9.507 7.475 L 5.708 10.293 L 3.564 11.855 L 1.266 13.546 L 0.36 14.246 L 0 15.546 L 0.075 15.811 L 0.317 15.246 L 0.446 15.366 L 0.555 15.055 L 3.029 13.849 L 3.154 14.203 L 3.283 13.731 L 5.296 12.744 L 5.382 13.292 L 5.475 13.305 L 5.572 12.666 L 7.419 12.153 L 7.537 12.649 L 7.601 12.644 L 7.721 12.105 L 9.127 11.942 L 9.948 11.864 L 10.157 13.277 L 9.86 13.275 L 9.736 13.079 L 8.676 13.112 L 8.565 13.59 L 8.563 14.686 L 8.78 16.099 L 9 16.978 L 9.74 16.961 L 9.749 16.852 L 10.435 17.176 L 10.655 17.987 L 7.424 20.688 L 7.324 20.999 L 7.268 21.782 L 7.252 22 L 10.906 20.113 L 10.972 20.439 L 11.094 20.442 L 11.101 20.096 L 14.732 21.93 L 14.757 21.378 L 14.677 20.788 L 14.541 20.607 L 13.5 19.727 L 11.374 17.95 L 11.571 17.161 L 12.251 16.829 L 12.301 16.956 L 13.064 16.951 L 13.364 15.586 L 13.481 14.573 L 13.486 13.728 L 13.433 13.205 L 13.271 13.108 L 12.293 13.072 L 12.203 13.281 L 11.882 13.281 L 12.033 12.142 L 12.052 11.857 L 14.297 12.094 L 14.427 12.66 L 14.528 12.652 L 14.581 12.147 L 16.444 12.64 L 16.595 13.303 L 16.72 12.744 L 18.764 13.742 L 18.873 14.145 L 18.979 13.841 L 21.477 15.091 L 21.57 15.336 L 21.686 15.277 L 21.973 15.795 L 22 15.507 L 21.678 14.211 L 19.375 12.529 L 17.775 11.336 L 14.215 8.702 L 12.06 7.108 L 12.076 5.484 L 12.052 3.063 L 12.06 2.655 L 11.983 1.897 L 11.77 1.182 L 11.361 0.359 L 11.082 0 L 10.898 0.005 L 10.489 0.656 L 10.261 1.227 L 10.099 1.837 L 9.955 2.699 L 9.96 3.801 L 9.972 7.059 Z"/>
</svg>