<?xml version="1.0" encoding="utf-8"?>
<!-- Generator: Adobe Illustrator 16.0.3, SVG Export Plug-In . SVG Version: 6.00 Build 0)  -->
<!DOCTYPE svg PUBLIC "-//W3C//DTD SVG 1.1//EN" "http://www.w3.org/Graphics/SVG/1.1/DTD/svg11.dtd">
<svg version="1.1" xmlns="http://www.w3.org/2000/svg" xmlns:xlink="http://www.w3.org/1999/xlink" x="0px" y="0px"
    width="30px" height="30px" viewBox="0 0 30 30" enable-background="new 0 0 30 30" xml:space="preserve">
    <g>
        <path fill="none" stroke="#828282" stroke-width="2" stroke-miterlimit="10" d="M15.427,1.281c0,0,0.626,0.244,0.977,1.557
		c0.496,1.856,0.564,6.531,0.564,6.531l10.941,9.903l0.168,1.496l-7.432-4.396l-3.784-1.129c0,0,0.171,3.904-0.007,6.408
		c-0.009,0.245-0.085,2.854-0.085,2.854l3.281,3.144v1.068l-4.074-1.099c0,0-0.112,0.523-0.306,0.549
		C15.441,28.2,15.441,28.2,15.441,28.2h0.006c0,0,0,0-0.229-0.031c-0.193-0.025-0.305-0.549-0.305-0.549l-4.074,1.099V27.65
		l3.281-3.144c0,0-0.076-2.609-0.085-2.854c-0.177-2.504-0.006-6.408-0.006-6.408l-3.785,1.129l-7.432,4.396l0.168-1.496
		l10.941-9.903c0,0,0.068-4.675,0.564-6.531c0.351-1.313,0.977-1.557,0.977-1.557 M10.701,12.803c0,0-0.321-0.031-0.321-0.244
		c0-0.214-0.015-0.534-0.015-0.534s-0.107-0.076-0.152-0.305c-0.046-0.229-0.077-0.763-0.062-1.007c0.016-0.244,0.26-0.29,0.26-0.29
		l0.29-0.015h-0.007l0.29,0.015c0,0,0.244,0.046,0.259,0.29s-0.015,0.778-0.061,1.007s-0.153,0.305-0.153,0.305
		s-0.015,0.32-0.015,0.534c0,0.213-0.32,0.244-0.32,0.244 M7.039,16.373c0,0-0.32-0.03-0.32-0.244c0-0.213-0.016-0.534-0.016-0.534
		S6.596,15.519,6.55,15.29c-0.046-0.229-0.076-0.763-0.061-1.007c0.015-0.245,0.259-0.291,0.259-0.291l0.29-0.015H7.032l0.29,0.015
		c0,0,0.244,0.046,0.259,0.291c0.016,0.244-0.015,0.777-0.061,1.007c-0.045,0.229-0.152,0.305-0.152,0.305s-0.015,0.321-0.015,0.534
		c0,0.214-0.321,0.244-0.321,0.244 M20.157,12.803c0,0-0.32-0.031-0.32-0.244c0-0.214-0.016-0.534-0.016-0.534
		s-0.106-0.076-0.152-0.305s-0.076-0.763-0.061-1.007c0.015-0.244,0.259-0.29,0.259-0.29l0.29-0.015H20.15l0.29,0.015
		c0,0,0.244,0.046,0.26,0.29c0.015,0.244-0.016,0.778-0.062,1.007c-0.045,0.229-0.152,0.305-0.152,0.305s-0.016,0.32-0.016,0.534
		c0,0.213-0.32,0.244-0.32,0.244 M23.819,16.373c0,0-0.32-0.03-0.32-0.244c0-0.213-0.015-0.534-0.015-0.534
		s-0.107-0.076-0.153-0.305c-0.045-0.229-0.076-0.763-0.061-1.007c0.016-0.245,0.26-0.291,0.26-0.291l0.289-0.015h-0.006l0.29,0.015
		c0,0,0.244,0.046,0.259,0.291c0.016,0.244-0.015,0.777-0.061,1.007c-0.046,0.229-0.153,0.305-0.153,0.305s-0.015,0.321-0.015,0.534
		c0,0.214-0.32,0.244-0.32,0.244" />
        <path fill="#FFF" d="M15.427,1.281c0,0,0.626,0.244,0.977,1.557c0.496,1.856,0.564,6.531,0.564,6.531l10.941,9.903l0.168,1.496
		l-7.432-4.396l-3.784-1.129c0,0,0.171,3.904-0.007,6.408c-0.009,0.245-0.085,2.854-0.085,2.854l3.281,3.144v1.068l-4.074-1.099
		c0,0-0.112,0.523-0.306,0.549C15.441,28.2,15.441,28.2,15.441,28.2h0.006c0,0,0,0-0.229-0.031
		c-0.193-0.025-0.305-0.549-0.305-0.549l-4.074,1.099V27.65l3.281-3.144c0,0-0.076-2.609-0.085-2.854
		c-0.177-2.504-0.006-6.408-0.006-6.408l-3.785,1.129l-7.432,4.396l0.168-1.496l10.941-9.903c0,0,0.068-4.675,0.564-6.531
		c0.351-1.313,0.977-1.557,0.977-1.557 M10.701,12.803c0,0-0.321-0.031-0.321-0.244c0-0.214-0.015-0.534-0.015-0.534
		s-0.107-0.076-0.152-0.305c-0.046-0.229-0.077-0.763-0.062-1.007c0.016-0.244,0.26-0.29,0.26-0.29l0.29-0.015h-0.007l0.29,0.015
		c0,0,0.244,0.046,0.259,0.29s-0.015,0.778-0.061,1.007s-0.153,0.305-0.153,0.305s-0.015,0.32-0.015,0.534
		c0,0.213-0.32,0.244-0.32,0.244 M7.039,16.373c0,0-0.32-0.03-0.32-0.244c0-0.213-0.016-0.534-0.016-0.534S6.596,15.519,6.55,15.29
		c-0.046-0.229-0.076-0.763-0.061-1.007c0.015-0.245,0.259-0.291,0.259-0.291l0.29-0.015H7.032l0.29,0.015
		c0,0,0.244,0.046,0.259,0.291c0.016,0.244-0.015,0.777-0.061,1.007c-0.045,0.229-0.152,0.305-0.152,0.305s-0.015,0.321-0.015,0.534
		c0,0.214-0.321,0.244-0.321,0.244 M20.157,12.803c0,0-0.32-0.031-0.32-0.244c0-0.214-0.016-0.534-0.016-0.534
		s-0.106-0.076-0.152-0.305s-0.076-0.763-0.061-1.007c0.015-0.244,0.259-0.29,0.259-0.29l0.29-0.015H20.15l0.29,0.015
		c0,0,0.244,0.046,0.26,0.29c0.015,0.244-0.016,0.778-0.062,1.007c-0.045,0.229-0.152,0.305-0.152,0.305s-0.016,0.32-0.016,0.534
		c0,0.213-0.32,0.244-0.32,0.244 M23.819,16.373c0,0-0.32-0.03-0.32-0.244c0-0.213-0.015-0.534-0.015-0.534
		s-0.107-0.076-0.153-0.305c-0.045-0.229-0.076-0.763-0.061-1.007c0.016-0.245,0.26-0.291,0.26-0.291l0.289-0.015h-0.006l0.29,0.015
		c0,0,0.244,0.046,0.259,0.291c0.016,0.244-0.015,0.777-0.061,1.007c-0.046,0.229-0.153,0.305-0.153,0.305s-0.015,0.321-0.015,0.534
		c0,0.214-0.32,0.244-0.32,0.244" />
    </g>
</svg>
