<?xml version="1.0" encoding="utf-8"?>
<svg viewBox="0 0 22 22" xmlns="http://www.w3.org/2000/svg">
  <path d="M 10.996 0.06 C 10.795 0.176 10.633 0.45 10.457 0.994 C 10.302 1.472 10.186 2.39 10.14 3.516 C 10.123 3.991 10.098 4.551 10.088 4.759 C 10.081 4.966 10.063 5.394 10.049 5.708 C 10.038 6.026 10.01 6.359 9.986 6.454 C 9.933 6.652 9.69 7.036 9.559 7.127 C 9.482 7.183 9.179 7.429 8.524 7.97 C 8.398 8.074 8.204 8.228 8.098 8.313 C 7.993 8.397 7.795 8.561 7.662 8.674 C 7.507 8.803 7.412 8.863 7.401 8.838 C 7.394 8.816 7.422 8.762 7.465 8.721 C 7.574 8.618 7.602 8.46 7.595 8.039 C 7.588 7.721 7.577 7.662 7.514 7.583 C 7.447 7.504 7.415 7.495 7.197 7.485 C 7.063 7.479 6.898 7.489 6.827 7.507 C 6.634 7.561 6.605 7.652 6.63 8.162 C 6.648 8.526 6.658 8.602 6.722 8.677 C 6.771 8.737 6.796 8.816 6.796 8.916 C 6.799 8.998 6.82 9.121 6.845 9.184 L 6.894 9.303 L 6.644 9.498 C 6.507 9.608 6.281 9.791 6.148 9.904 C 6.01 10.017 5.81 10.181 5.704 10.266 C 5.598 10.354 5.472 10.458 5.422 10.495 C 5.373 10.536 5.243 10.64 5.127 10.728 C 5.014 10.819 4.81 10.983 4.676 11.096 C 4.539 11.209 4.415 11.304 4.398 11.31 C 4.38 11.316 4.366 11.159 4.366 10.961 C 4.366 10.615 4.363 10.593 4.274 10.502 C 4.19 10.41 4.169 10.404 3.947 10.404 C 3.641 10.404 3.517 10.445 3.436 10.568 C 3.377 10.653 3.373 10.706 3.394 11.027 C 3.426 11.47 3.44 11.546 3.525 11.627 C 3.57 11.672 3.591 11.738 3.591 11.835 C 3.591 11.97 3.577 11.992 3.426 12.115 C 2.813 12.609 1.232 13.889 0.968 14.103 C 0.796 14.244 0.581 14.42 0.493 14.49 C 0.377 14.584 0.313 14.615 0.254 14.603 C 0.211 14.593 0.176 14.596 0.176 14.609 C 0.176 14.625 0.158 14.732 0.137 14.854 C 0.099 15.112 0 15.952 0 16.059 C 0 16.172 0.053 16.119 0.123 15.93 L 0.187 15.76 L 1.194 15.213 C 2.088 14.725 2.873 14.298 4.144 13.606 C 4.363 13.489 4.556 13.392 4.574 13.392 C 4.595 13.392 4.62 13.445 4.634 13.508 C 4.644 13.574 4.669 13.669 4.683 13.722 L 4.711 13.816 L 4.718 13.722 C 4.722 13.669 4.725 13.552 4.729 13.458 L 4.736 13.288 L 5.362 12.942 C 5.708 12.753 5.996 12.606 6.007 12.612 C 6.014 12.621 6.042 12.719 6.067 12.829 L 6.109 13.03 L 6.119 12.769 C 6.127 12.558 6.141 12.505 6.19 12.489 C 6.222 12.48 6.355 12.411 6.482 12.335 C 6.651 12.241 6.873 12.159 7.292 12.043 C 7.609 11.955 7.936 11.863 8.017 11.838 C 8.102 11.813 8.172 11.8 8.183 11.813 C 8.19 11.826 8.207 11.911 8.222 12.005 C 8.253 12.209 8.313 12.162 8.302 11.939 C 8.299 11.857 8.31 11.775 8.327 11.763 C 8.373 11.725 8.912 11.574 9.084 11.549 C 9.232 11.527 9.218 11.514 9.271 11.741 C 9.281 11.778 9.292 11.76 9.295 11.694 C 9.299 11.634 9.306 11.558 9.309 11.524 C 9.313 11.48 9.394 11.445 9.7 11.36 C 9.915 11.304 10.091 11.253 10.091 11.253 C 10.095 11.253 10.098 11.907 10.102 12.706 C 10.102 13.508 10.112 14.298 10.119 14.461 C 10.13 14.625 10.147 15.037 10.158 15.373 C 10.193 16.487 10.228 16.864 10.408 18.062 L 10.496 18.66 L 10.419 18.717 C 10.373 18.748 10.172 18.911 9.968 19.078 C 9.538 19.434 9.577 19.402 9.172 19.745 C 8.996 19.893 8.683 20.154 8.472 20.327 C 8.26 20.5 7.94 20.767 7.757 20.921 L 7.429 21.201 L 7.429 21.601 L 7.429 22 L 7.792 21.909 C 8.376 21.761 8.51 21.729 9.119 21.585 C 9.44 21.509 9.869 21.406 10.081 21.352 C 10.288 21.299 10.482 21.255 10.51 21.255 C 10.549 21.255 10.563 21.289 10.563 21.374 C 10.563 21.512 10.626 21.849 10.665 21.909 C 10.679 21.931 10.757 21.811 10.859 21.601 C 10.95 21.412 11.042 21.255 11.059 21.255 C 11.074 21.255 11.105 21.314 11.126 21.387 C 11.176 21.569 11.207 21.613 11.292 21.626 C 11.38 21.638 11.419 21.591 11.493 21.39 C 11.528 21.299 11.566 21.217 11.584 21.207 C 11.598 21.198 11.792 21.229 12.01 21.273 C 12.232 21.317 12.64 21.393 12.922 21.443 C 13.204 21.494 13.767 21.597 14.176 21.673 L 14.918 21.811 L 14.943 21.415 L 14.968 21.019 L 14.478 20.594 C 14.211 20.361 13.802 20.009 13.57 19.811 C 13.341 19.613 12.901 19.232 12.595 18.968 L 12.038 18.484 L 12.109 18.1 C 12.147 17.889 12.197 17.575 12.218 17.402 C 12.239 17.229 12.281 16.946 12.309 16.776 C 12.38 16.361 12.426 15.782 12.447 14.996 C 12.457 14.64 12.475 14.238 12.482 14.096 C 12.489 13.958 12.507 13.342 12.517 12.728 C 12.535 11.618 12.556 11.162 12.584 11.137 C 12.591 11.131 12.778 11.178 12.996 11.244 L 13.397 11.363 L 13.436 11.552 L 13.475 11.741 L 13.482 11.574 C 13.485 11.464 13.499 11.41 13.531 11.41 C 13.637 11.41 14.316 11.637 14.359 11.684 C 14.38 11.712 14.401 11.788 14.404 11.848 C 14.404 11.911 14.418 11.989 14.436 12.024 C 14.457 12.068 14.468 12.03 14.468 11.889 C 14.471 11.782 14.485 11.694 14.503 11.694 C 14.598 11.694 16.01 12.143 16.172 12.225 C 16.411 12.348 16.429 12.367 16.457 12.549 C 16.489 12.747 16.549 12.775 16.549 12.593 C 16.549 12.514 16.556 12.448 16.563 12.448 C 16.591 12.448 17.654 13.021 17.714 13.068 C 17.749 13.093 17.781 13.187 17.795 13.304 C 17.823 13.505 17.89 13.508 17.869 13.307 C 17.866 13.25 17.876 13.194 17.89 13.184 C 17.915 13.172 18.337 13.382 18.626 13.549 C 18.675 13.577 21.619 15.159 21.837 15.276 C 21.908 15.31 21.936 15.351 21.936 15.411 C 21.936 15.458 21.953 15.505 21.971 15.515 C 21.996 15.527 22.003 15.304 21.999 14.835 L 21.989 14.134 L 21.89 14.112 C 21.834 14.1 21.7 14.011 21.587 13.92 C 21.478 13.829 21.309 13.691 21.21 13.612 C 21.112 13.533 20.591 13.125 20.056 12.7 L 19.084 11.929 L 19.084 11.706 C 19.084 11.53 19.098 11.477 19.137 11.461 C 19.249 11.423 19.295 11.237 19.295 10.825 C 19.295 10.385 19.256 10.278 19.077 10.212 C 18.95 10.165 18.542 10.196 18.429 10.263 C 18.309 10.332 18.295 10.42 18.32 10.898 C 18.334 11.134 18.33 11.316 18.313 11.31 C 18.285 11.3 18.017 11.093 17.552 10.719 C 17.436 10.624 17.07 10.335 16.742 10.074 C 16.411 9.816 16.094 9.564 16.035 9.514 C 15.971 9.467 15.894 9.407 15.862 9.385 C 15.802 9.347 15.802 9.338 15.876 9.203 C 15.932 9.096 15.947 9.02 15.936 8.91 C 15.922 8.784 15.932 8.75 16.003 8.693 C 16.105 8.608 16.116 8.561 16.144 8.099 C 16.175 7.539 16.098 7.435 15.661 7.445 C 15.193 7.454 15.13 7.536 15.161 8.08 C 15.183 8.46 15.218 8.615 15.302 8.674 C 15.348 8.712 15.376 8.926 15.33 8.926 C 15.306 8.926 13.834 7.699 13.316 7.246 C 12.926 6.907 12.672 6.639 12.524 6.41 C 12.436 6.275 12.429 6.231 12.394 5.592 C 12.285 3.661 12.218 2.9 12.091 2.189 C 11.915 1.18 11.619 0.403 11.292 0.094 C 11.165 -0.025 11.144 -0.025 10.996 0.06 Z" fill="#000000" stroke="none"/>
</svg>