<?xml version="1.0" encoding="utf-8"?>
<!-- Generator: Adobe Illustrator 16.0.3, SVG Export Plug-In . SVG Version: 6.00 Build 0)  -->
<!DOCTYPE svg PUBLIC "-//W3C//DTD SVG 1.1//EN" "http://www.w3.org/Graphics/SVG/1.1/DTD/svg11.dtd">
<svg version="1.1" id="Capa_1" xmlns="http://www.w3.org/2000/svg" xmlns:xlink="http://www.w3.org/1999/xlink" x="0px" y="0px"
	 width="30px" height="30px" viewBox="0 0 30 30" enable-background="new 0 0 30 30" xml:space="preserve">
<g>
	<path fill="#0DC520" d="M27.509,15.798l-8.682-4.962V5.64c0-1.02-0.39-2.322-1.026-3.39c-0.792-1.338-1.806-2.07-2.862-2.07
		s-2.07,0.738-2.862,2.07c-0.63,1.068-1.026,2.37-1.026,3.39v5.196l-8.682,4.962c-0.474,0.271-0.768,0.78-0.768,1.326v3.222
		c0,0.486,0.222,0.93,0.606,1.219c0.384,0.287,0.876,0.384,1.338,0.246l7.506-2.143v3.714L8.513,25.29
		c-0.384,0.288-0.612,0.743-0.612,1.218v1.969c0,0.474,0.216,0.912,0.588,1.199C8.759,29.886,9.089,30,9.425,30
		c0.126,0,0.252-0.018,0.372-0.049l0.012-0.006l5.13-1.494l5.112,1.488l0.03,0.006c0.456,0.113,0.937,0.013,1.308-0.275
		c0.373-0.294,0.588-0.732,0.588-1.2v-1.968c0-0.48-0.228-0.936-0.61-1.219l-2.538-1.901v-3.714l7.506,2.143
		c0.462,0.131,0.954,0.041,1.338-0.246c0.385-0.289,0.605-0.731,0.605-1.219v-3.222C28.277,16.578,27.982,16.068,27.509,15.798z
		 M26.734,20.395l-9.383-2.683v6.408l3.131,2.346c0.013,0.013,0.019,0.024,0.019,0.042v1.969c0,0.006,0,0.023-0.019,0.035
		c-0.012,0.012-0.029,0.012-0.035,0.012l-5.508-1.606l-5.508,1.606c-0.006,0-0.024,0-0.036-0.012
		c-0.018-0.012-0.018-0.029-0.018-0.035v-1.969c0-0.018,0.006-0.029,0.018-0.042l3.132-2.346v-6.408l-9.39,2.683
		c-0.006,0-0.024,0.006-0.042-0.006c-0.018-0.013-0.018-0.031-0.018-0.043v-3.222c0-0.019,0.012-0.036,0.024-0.042l9.426-5.388V5.64
		c0-1.572,1.296-3.984,2.412-3.984s2.413,2.412,2.413,3.984v6.054l9.426,5.388c0.019,0.006,0.023,0.023,0.023,0.042v3.222
		c0,0.006,0,0.024-0.018,0.043C26.759,20.4,26.747,20.395,26.734,20.395z"/>
</g>
<path fill="#FFFFFF" d="M26.777,17.082l-9.426-5.388V5.64c0-1.572-1.297-3.984-2.414-3.984c-1.116,0-2.412,2.412-2.412,3.984v6.054
	L3.1,17.076c-0.018,0.006-0.024,0.023-0.024,0.041v3.223c0,0.006,0,0.023,0.018,0.042c0.018,0.013,0.036,0.013,0.042,0.007
	l9.39-2.677v6.408l-3.132,2.346c-0.012,0.013-0.018,0.024-0.018,0.042v1.969c0,0.006,0,0.023,0.018,0.035
	c0.012,0.012,0.024,0.012,0.036,0.012l5.508-1.606l5.507,1.606c0.007,0,0.023,0,0.035-0.012c0.02-0.012,0.02-0.029,0.02-0.035
	v-1.969c0-0.018-0.006-0.029-0.02-0.042L17.35,24.12v-6.408l9.383,2.683c0.006,0,0.024,0.006,0.043-0.006
	c0.019-0.013,0.019-0.031,0.019-0.043v-3.222C26.801,17.105,26.789,17.088,26.777,17.082z"/>
</svg>
