<?xml version="1.0" encoding="utf-8"?>
<svg viewBox="0 0 22 22" xmlns="http://www.w3.org/2000/svg">
  <path d="M 10.874 0.104 C 10.676 0.353 10.306 1.526 10.014 2.807 C 9.902 3.302 9.851 3.753 9.704 5.365 L 9.532 7.321 L 9.184 8.524 C 8.87 9.595 8.832 9.78 8.81 10.188 L 8.784 10.644 L 6.786 12.303 L 4.787 13.966 L 4.761 13.352 C 4.735 12.759 4.697 12.544 4.593 12.479 C 4.568 12.462 4.516 12.522 4.473 12.617 C 4.409 12.763 4.4 12.982 4.4 14.822 L 4.4 16.864 L 4.572 16.864 L 4.744 16.864 L 4.757 16.485 L 4.77 16.111 L 7.142 16.12 L 9.515 16.133 L 9.528 17.044 L 9.537 17.955 L 8.247 19.064 L 6.958 20.169 L 6.958 20.711 L 6.958 21.252 L 7.142 21.433 L 7.327 21.613 L 8.432 21.613 L 9.537 21.613 L 9.537 21.442 L 9.537 21.27 L 9.709 21.27 L 9.881 21.27 L 9.881 20.539 C 9.881 19.971 9.894 19.808 9.936 19.808 C 9.975 19.808 10.022 20.083 10.113 20.805 C 10.177 21.356 10.242 21.85 10.255 21.906 C 10.276 22 10.285 22 10.998 22 C 11.712 22 11.72 22 11.742 21.901 C 11.755 21.85 11.819 21.356 11.884 20.81 C 11.974 20.083 12.021 19.808 12.06 19.808 C 12.103 19.808 12.116 19.971 12.116 20.539 L 12.116 21.27 L 12.288 21.27 L 12.46 21.27 L 12.46 21.442 L 12.46 21.613 L 13.564 21.613 L 14.669 21.613 L 14.854 21.433 L 15.039 21.252 L 15.039 20.711 L 15.039 20.169 L 13.749 19.064 L 12.46 17.955 L 12.468 17.044 L 12.481 16.133 L 14.854 16.12 L 17.227 16.111 L 17.24 16.485 L 17.253 16.864 L 17.425 16.864 L 17.596 16.864 L 17.596 14.822 C 17.596 12.999 17.588 12.763 17.523 12.617 C 17.364 12.268 17.27 12.505 17.235 13.33 L 17.21 13.966 L 15.211 12.303 L 13.212 10.644 L 13.186 10.188 C 13.165 9.78 13.126 9.595 12.812 8.524 L 12.464 7.321 L 12.292 5.365 C 12.099 3.229 12.056 2.949 11.634 1.458 C 11.402 0.637 11.295 0.344 11.14 0.129 C 11.015 -0.038 10.985 -0.038 10.874 0.104 Z" fill="#000000" stroke="none"/>
</svg>