<?xml version="1.0" encoding="utf-8"?>
<svg viewBox="0 0 22 22" xmlns="http://www.w3.org/2000/svg">
  <path d="M 10.62 0.071 C 10.234 0.167 9.932 0.312 9.617 0.548 C 8.863 1.116 8.229 2.164 7.881 3.407 L 7.815 3.651 C 7.815 3.651 3.916 0.063 3.874 0.051 C 3.721 0.005 3.336 0.163 3.158 0.337 C 2.909 0.585 2.851 0.826 2.938 1.244 C 2.984 1.464 2.992 1.472 5.254 3.743 L 7.525 6.022 L 7.554 6.436 C 7.616 7.376 7.807 8.288 8.105 9.067 L 8.271 9.502 L 5.627 12.153 C 2.988 14.802 2.984 14.805 2.938 15.025 C 2.851 15.443 2.909 15.684 3.158 15.928 C 3.456 16.227 3.916 16.293 4.301 16.086 C 4.359 16.057 5.515 14.921 6.87 13.567 C 8.225 12.208 9.352 11.097 9.377 11.097 C 9.398 11.097 9.468 11.147 9.534 11.2 L 9.646 11.3 L 9.646 14.669 L 9.642 18.037 L 8.13 19.052 C 7.297 19.612 6.584 20.101 6.547 20.146 C 6.489 20.209 6.476 20.341 6.464 20.983 L 6.451 21.745 L 6.576 21.87 C 6.692 21.986 6.783 22.015 6.973 21.994 C 7.015 21.99 7.786 21.663 8.677 21.265 L 10.301 20.544 L 11.154 20.544 L 12.008 20.544 C 12.008 20.544 15.472 22.069 15.675 21.936 C 15.82 21.841 15.861 21.634 15.861 21.016 C 15.861 20.37 15.841 20.245 15.716 20.121 C 15.662 20.068 14.95 19.574 14.125 19.019 L 12.629 18.012 L 12.629 14.664 C 12.629 11.967 12.642 11.304 12.683 11.271 C 12.725 11.233 13.288 11.777 15.136 13.628 C 16.458 14.951 18.488 16.227 18.787 15.928 C 19.035 15.684 19.093 15.443 19.006 15.025 C 18.961 14.805 18.956 14.802 16.433 12.274 L 13.905 9.742 L 14.018 9.518 C 14.183 9.199 14.474 8.288 14.573 7.782 C 14.689 7.19 14.739 6.734 14.747 6.166 L 14.755 5.69 L 16.86 3.577 C 18.948 1.476 18.961 1.464 19.006 1.244 C 19.031 1.124 19.052 0.983 19.052 0.933 C 19.052 0.565 18.765 0.209 18.381 0.096 C 18.144 0.03 18.124 0.03 17.705 0.146 C 17.66 0.159 16.901 0.888 16.019 1.766 C 15.016 2.765 14.407 3.341 14.399 3.303 C 14.233 2.732 13.897 2.007 13.579 1.526 C 13.048 0.731 12.438 0.267 11.684 0.071 C 11.308 -0.023 11.005 -0.023 10.62 0.071 Z" stroke="none" style="paint-order: stroke; stroke-width: 0px;"/>
</svg>