<?xml version="1.0" encoding="utf-8"?>
<!-- Generator: Adobe Illustrator 16.0.3, SVG Export Plug-In . SVG Version: 6.00 Build 0)  -->
<!DOCTYPE svg PUBLIC "-//W3C//DTD SVG 1.1//EN" "http://www.w3.org/Graphics/SVG/1.1/DTD/svg11.dtd">
<svg version="1.1" xmlns="http://www.w3.org/2000/svg" xmlns:xlink="http://www.w3.org/1999/xlink" x="0px" y="0px"
    width="30px" height="30px" viewBox="0 0 30 30" enable-background="new 0 0 30 30" xml:space="preserve">
    <g id="B0-Unspecified-unpowered-aircraft-or-UAV-or-spacecraft">
        <path fill="none" stroke="#2B62AE" stroke-width="2" stroke-miterlimit="10" d="M15.572,12.75l6.75,0.438
		c0,0-0.938-2.625-2.688-3.75s-4.063-1-4.063-1V7.344c0,0,2.625-0.344,5.188,1.625s2.594,4.281,2.594,4.281s4.156,0.094,4.156,1.594
		s-4.781,1.75-4.781,1.75l1.5,2l-1.281,1.188c0,0,0.688,0.188,0.719,0.688c-0.063,0.5-1.813,0.594-1.813,0.594
		s-1.938,0.063-2.031-0.563s1.563-0.813,1.563-0.813l1.313-1.219l-1.281-1.688l-5.844,0.25h0.021l-5.844-0.25l-1.281,1.688
		l1.313,1.219c0,0,1.656,0.188,1.563,0.813s-2.031,0.563-2.031,0.563s-1.75-0.094-1.813-0.594c0.031-0.5,0.719-0.688,0.719-0.688
		l-1.281-1.188l1.5-2c0,0-4.781-0.25-4.781-1.75s4.156-1.594,4.156-1.594s0.031-2.313,2.594-4.281s5.188-1.625,5.188-1.625v1.094
		c0,0-2.313-0.125-4.063,1s-2.688,3.75-2.688,3.75l6.75-0.438" />
        <path fill="#FFFFFF" d="M15.572,12.75l6.75,0.438c0,0-0.938-2.625-2.688-3.75s-4.063-1-4.063-1V7.344c0,0,2.625-0.344,5.188,1.625
		s2.594,4.281,2.594,4.281s4.156,0.094,4.156,1.594s-4.781,1.75-4.781,1.75l1.5,2l-1.281,1.188c0,0,0.688,0.188,0.719,0.688
		c-0.063,0.5-1.813,0.594-1.813,0.594s-1.938,0.063-2.031-0.563s1.563-0.813,1.563-0.813l1.313-1.219l-1.281-1.688l-5.844,0.25
		h0.021l-5.844-0.25l-1.281,1.688l1.313,1.219c0,0,1.656,0.188,1.563,0.813s-2.031,0.563-2.031,0.563s-1.75-0.094-1.813-0.594
		c0.031-0.5,0.719-0.688,0.719-0.688l-1.281-1.188l1.5-2c0,0-4.781-0.25-4.781-1.75s4.156-1.594,4.156-1.594
		s0.031-2.313,2.594-4.281s5.188-1.625,5.188-1.625v1.094c0,0-2.313-0.125-4.063,1s-2.688,3.75-2.688,3.75l6.75-0.438" />
    </g>
</svg>
