<?xml version="1.0" encoding="utf-8"?>
<svg width="22px" height="22px" viewBox="0 0 22 22" xmlns="http://www.w3.org/2000/svg" xmlns:bx="https://boxy-svg.com">
  <path style="fill: rgb(218, 85, 85);" d="M 17.498 16.159 L 17.654 16.016 L 17.805 15.871 L 17.955 15.726 L 18.105 15.581 L 18.256 15.436 L 18.406 15.291 L 18.556 15.146 L 18.707 15.001 L 18.53 14.785 L 18.353 14.569 L 18.177 14.352 L 18 14.136 L 17.823 13.919 L 17.647 13.703 L 17.47 13.487 L 17.293 13.27 L 17.389 13.258 L 17.485 13.247 L 17.582 13.235 L 17.678 13.223 L 17.774 13.212 L 17.87 13.2 L 17.966 13.188 L 18.062 13.177 C 18.717 13.047 19.29 12.918 19.781 12.789 C 20.272 12.66 20.682 12.531 21.01 12.402 C 21.338 12.273 21.585 12.143 21.75 12.014 C 21.915 11.885 21.998 11.755 22 11.626 C 22.002 11.496 21.922 11.366 21.761 11.236 C 21.6 11.106 21.358 10.976 21.034 10.846 C 20.71 10.716 20.304 10.585 19.818 10.455 C 19.331 10.324 18.763 10.193 18.113 10.062 C 17.991 9.615 17.847 9.195 17.682 8.803 C 17.516 8.411 17.329 8.047 17.119 7.71 C 16.91 7.373 16.679 7.063 16.426 6.781 C 16.173 6.499 15.898 6.244 15.602 6.016 C 15.306 5.789 14.988 5.589 14.648 5.416 C 14.309 5.244 13.947 5.098 13.564 4.98 C 13.181 4.862 12.777 4.772 12.351 4.708 C 11.925 4.645 11.477 4.609 11.008 4.6 L 10.975 4.6 L 10.942 4.6 L 10.909 4.6 L 10.875 4.6 L 10.842 4.6 L 10.809 4.6 L 10.776 4.6 L 10.743 4.6 C 10.261 4.632 9.806 4.687 9.377 4.767 C 8.948 4.846 8.545 4.95 8.167 5.077 C 7.788 5.205 7.435 5.357 7.106 5.533 C 6.777 5.709 6.472 5.909 6.191 6.133 C 5.909 6.358 5.651 6.606 5.415 6.88 C 5.18 7.153 4.967 7.45 4.775 7.772 C 4.584 8.095 4.414 8.441 4.266 8.812 C 4.117 9.183 3.989 9.579 3.881 10 L 3.88 10.014 L 3.879 10.028 L 3.877 10.043 L 3.876 10.057 L 3.874 10.071 L 3.873 10.086 L 3.871 10.1 L 3.87 10.114 C 3.22 10.239 2.653 10.363 2.167 10.489 C 1.681 10.614 1.277 10.74 0.955 10.867 C 0.632 10.994 0.391 11.121 0.232 11.249 C 0.073 11.377 -0.004 11.506 0 11.635 C 0.005 11.765 0.091 11.894 0.258 12.025 C 0.426 12.156 0.676 12.287 1.007 12.419 C 1.338 12.55 1.751 12.683 2.245 12.816 C 2.74 12.949 3.316 13.082 3.975 13.217 L 4.028 13.22 L 4.082 13.223 L 4.135 13.226 L 4.189 13.229 L 4.243 13.232 L 4.296 13.235 L 4.35 13.238 L 4.404 13.241 L 4.227 13.463 L 4.05 13.684 L 3.873 13.906 L 3.696 14.128 L 3.519 14.35 L 3.342 14.571 L 3.165 14.793 L 2.988 15.015 L 3.142 15.159 L 3.297 15.304 L 3.451 15.448 L 3.605 15.592 L 3.759 15.737 L 3.914 15.881 L 4.068 16.026 L 4.222 16.17 C 4.215 16.176 4.21 16.181 4.204 16.186 C 4.199 16.19 4.195 16.194 4.191 16.197 C 4.187 16.2 4.183 16.203 4.179 16.206 C 4.175 16.208 4.172 16.21 4.168 16.212 C 4.164 16.214 4.16 16.216 4.155 16.218 C 4.151 16.22 4.146 16.222 4.14 16.224 C 4.134 16.226 4.127 16.229 4.12 16.232 C 4.112 16.235 4.103 16.238 4.093 16.242 C 4.083 16.247 4.073 16.251 4.063 16.255 C 4.053 16.259 4.043 16.263 4.034 16.268 C 4.024 16.272 4.015 16.276 4.005 16.281 C 3.996 16.285 3.987 16.29 3.977 16.294 C 3.968 16.299 3.959 16.303 3.95 16.308 C 3.942 16.312 3.933 16.317 3.924 16.322 C 3.916 16.326 3.907 16.331 3.899 16.336 C 3.891 16.341 3.882 16.346 3.874 16.35 C 3.866 16.355 3.858 16.36 3.851 16.365 C 3.843 16.37 3.835 16.375 3.828 16.38 C 3.82 16.385 3.813 16.39 3.806 16.395 C 3.799 16.4 3.792 16.405 3.785 16.411 C 3.778 16.416 3.771 16.421 3.764 16.426 C 3.758 16.431 3.751 16.437 3.745 16.442 C 3.739 16.447 3.733 16.453 3.727 16.458 C 3.721 16.463 3.715 16.469 3.709 16.474 C 3.704 16.48 3.698 16.485 3.693 16.491 C 3.687 16.496 3.682 16.502 3.677 16.508 C 3.672 16.513 3.667 16.519 3.663 16.524 C 3.658 16.53 3.653 16.536 3.649 16.541 C 3.645 16.547 3.641 16.553 3.637 16.559 C 3.633 16.564 3.629 16.57 3.625 16.576 C 3.621 16.582 3.618 16.588 3.614 16.594 C 3.611 16.6 3.608 16.605 3.605 16.611 C 3.602 16.617 3.599 16.623 3.597 16.629 C 3.594 16.635 3.592 16.641 3.589 16.647 C 3.587 16.653 3.585 16.659 3.583 16.666 C 3.581 16.672 3.579 16.678 3.578 16.684 C 3.576 16.69 3.575 16.696 3.574 16.702 C 3.573 16.708 3.572 16.715 3.571 16.721 C 3.57 16.727 3.57 16.733 3.569 16.74 C 3.569 16.746 3.569 16.752 3.569 16.758 C 3.569 16.765 3.569 16.771 3.569 16.777 C 3.57 16.784 3.57 16.79 3.571 16.796 C 3.572 16.802 3.573 16.808 3.574 16.815 C 3.575 16.821 3.576 16.827 3.578 16.833 C 3.579 16.839 3.581 16.845 3.583 16.851 C 3.585 16.858 3.587 16.864 3.589 16.87 C 3.592 16.876 3.594 16.882 3.597 16.888 C 3.599 16.894 3.602 16.9 3.605 16.906 C 3.608 16.912 3.611 16.917 3.614 16.923 C 3.618 16.929 3.621 16.935 3.625 16.941 C 3.629 16.947 3.633 16.953 3.637 16.958 C 3.641 16.964 3.645 16.97 3.649 16.976 C 3.653 16.981 3.658 16.987 3.663 16.993 C 3.667 16.998 3.672 17.004 3.677 17.009 C 3.682 17.015 3.687 17.021 3.693 17.026 C 3.698 17.032 3.704 17.037 3.709 17.043 C 3.715 17.048 3.721 17.053 3.727 17.059 C 3.733 17.064 3.739 17.07 3.745 17.075 C 3.751 17.08 3.758 17.086 3.764 17.091 C 3.771 17.096 3.778 17.101 3.785 17.106 C 3.792 17.112 3.799 17.117 3.806 17.122 C 3.813 17.127 3.82 17.132 3.828 17.137 C 3.835 17.142 3.843 17.147 3.851 17.152 C 3.858 17.157 3.866 17.162 3.874 17.167 C 3.882 17.171 3.891 17.176 3.899 17.181 C 3.907 17.186 3.916 17.191 3.924 17.195 C 3.933 17.2 3.942 17.205 3.95 17.209 C 3.959 17.214 3.968 17.218 3.977 17.223 C 3.987 17.227 3.996 17.232 4.005 17.236 C 4.015 17.241 4.024 17.245 4.034 17.249 C 4.043 17.254 4.053 17.258 4.063 17.262 C 4.073 17.266 4.083 17.27 4.093 17.275 C 4.103 17.279 4.113 17.283 4.124 17.287 C 4.134 17.291 4.145 17.295 4.155 17.299 C 4.166 17.303 4.176 17.307 4.187 17.31 C 4.198 17.314 4.209 17.318 4.22 17.322 C 4.231 17.325 4.242 17.329 4.254 17.333 C 4.265 17.336 4.276 17.34 4.288 17.343 C 4.299 17.347 4.311 17.35 4.323 17.354 C 4.334 17.357 4.346 17.36 4.358 17.364 C 4.37 17.367 4.382 17.37 4.394 17.373 C 4.406 17.377 4.418 17.38 4.431 17.383 C 4.443 17.386 4.455 17.389 4.468 17.392 C 4.48 17.395 4.493 17.398 4.506 17.4 C 4.518 17.403 4.531 17.406 4.544 17.409 C 4.557 17.411 4.57 17.414 4.583 17.416 C 4.596 17.419 4.609 17.422 4.622 17.424 C 4.635 17.426 4.649 17.429 4.662 17.431 C 4.675 17.433 4.689 17.436 4.702 17.438 C 4.716 17.44 4.73 17.442 4.743 17.444 C 4.757 17.446 4.771 17.448 4.785 17.45 C 4.799 17.452 4.813 17.454 4.827 17.456 C 4.841 17.457 4.855 17.459 4.869 17.461 C 4.883 17.462 4.897 17.464 4.911 17.465 C 4.926 17.467 4.94 17.468 4.955 17.47 C 4.969 17.471 4.983 17.472 4.998 17.474 C 5.013 17.475 5.027 17.476 5.042 17.477 C 5.057 17.478 5.071 17.479 5.086 17.48 C 5.101 17.481 5.116 17.482 5.131 17.483 C 5.146 17.483 5.161 17.484 5.176 17.485 C 5.191 17.485 5.206 17.486 5.221 17.486 C 5.236 17.487 5.251 17.487 5.267 17.487 C 5.282 17.488 5.297 17.488 5.313 17.488 C 5.328 17.488 5.343 17.488 5.359 17.488 C 5.374 17.488 5.39 17.488 5.405 17.488 C 5.42 17.488 5.436 17.488 5.451 17.487 C 5.466 17.487 5.481 17.487 5.497 17.486 C 5.512 17.486 5.527 17.485 5.542 17.485 C 5.557 17.484 5.572 17.483 5.587 17.483 C 5.602 17.482 5.617 17.481 5.632 17.48 C 5.646 17.479 5.661 17.478 5.676 17.477 C 5.69 17.476 5.705 17.475 5.72 17.474 C 5.734 17.472 5.749 17.471 5.763 17.47 C 5.778 17.468 5.792 17.467 5.806 17.465 C 5.821 17.464 5.835 17.462 5.849 17.461 C 5.863 17.459 5.877 17.457 5.891 17.456 C 5.905 17.454 5.919 17.452 5.933 17.45 C 5.947 17.448 5.961 17.446 5.974 17.444 C 5.988 17.442 6.002 17.44 6.015 17.438 C 6.029 17.436 6.042 17.433 6.056 17.431 C 6.069 17.429 6.082 17.426 6.096 17.424 C 6.109 17.422 6.122 17.419 6.135 17.416 C 6.148 17.414 6.161 17.411 6.174 17.409 C 6.187 17.406 6.2 17.403 6.212 17.4 C 6.225 17.398 6.237 17.395 6.25 17.392 C 6.262 17.389 6.275 17.386 6.287 17.383 C 6.299 17.38 6.312 17.377 6.324 17.373 C 6.336 17.37 6.348 17.367 6.36 17.364 C 6.372 17.36 6.384 17.357 6.395 17.354 C 6.407 17.35 6.419 17.347 6.43 17.343 C 6.442 17.34 6.453 17.336 6.464 17.333 C 6.475 17.329 6.487 17.325 6.498 17.322 C 6.509 17.318 6.52 17.314 6.53 17.31 C 6.541 17.307 6.552 17.303 6.563 17.299 C 6.573 17.295 6.584 17.291 6.594 17.287 C 6.604 17.283 6.615 17.279 6.625 17.275 C 6.635 17.27 6.645 17.266 6.655 17.262 C 6.665 17.258 6.674 17.254 6.684 17.249 C 6.694 17.245 6.703 17.241 6.713 17.236 C 6.722 17.232 6.731 17.227 6.74 17.223 C 6.749 17.218 6.758 17.214 6.767 17.209 C 6.776 17.205 6.785 17.2 6.793 17.195 C 6.802 17.191 6.811 17.186 6.819 17.181 C 6.827 17.176 6.835 17.171 6.843 17.167 C 6.851 17.162 6.859 17.157 6.867 17.152 C 6.875 17.147 6.882 17.142 6.89 17.137 C 6.897 17.132 6.905 17.127 6.912 17.122 C 6.919 17.117 6.926 17.112 6.933 17.106 C 6.94 17.101 6.947 17.096 6.953 17.091 C 6.96 17.086 6.966 17.08 6.973 17.075 C 6.979 17.07 6.985 17.064 6.991 17.059 C 6.997 17.053 7.003 17.048 7.008 17.043 C 7.014 17.037 7.02 17.032 7.025 17.026 C 7.03 17.021 7.036 17.015 7.041 17.009 C 7.046 17.004 7.05 16.998 7.055 16.993 C 7.06 16.987 7.064 16.981 7.069 16.976 C 7.073 16.97 7.077 16.964 7.081 16.958 C 7.085 16.953 7.089 16.947 7.093 16.941 C 7.096 16.935 7.1 16.929 7.103 16.923 C 7.107 16.917 7.11 16.912 7.113 16.906 C 7.116 16.9 7.119 16.894 7.121 16.888 C 7.124 16.882 7.126 16.876 7.128 16.87 C 7.131 16.864 7.133 16.858 7.135 16.851 C 7.137 16.845 7.138 16.839 7.14 16.833 C 7.141 16.827 7.143 16.821 7.144 16.815 C 7.145 16.808 7.146 16.802 7.147 16.796 C 7.148 16.79 7.148 16.784 7.149 16.777 C 7.149 16.771 7.149 16.765 7.149 16.758 C 7.149 16.752 7.149 16.746 7.149 16.74 C 7.148 16.733 7.148 16.727 7.147 16.721 C 7.146 16.715 7.145 16.708 7.144 16.702 C 7.143 16.696 7.141 16.69 7.14 16.684 C 7.138 16.678 7.137 16.672 7.135 16.666 C 7.133 16.659 7.131 16.653 7.128 16.647 C 7.126 16.641 7.124 16.635 7.121 16.629 C 7.119 16.623 7.116 16.617 7.113 16.611 C 7.11 16.605 7.107 16.6 7.103 16.594 C 7.1 16.588 7.096 16.582 7.093 16.576 C 7.089 16.57 7.085 16.564 7.081 16.559 C 7.077 16.553 7.073 16.547 7.069 16.541 C 7.064 16.536 7.06 16.53 7.055 16.524 C 7.05 16.519 7.046 16.513 7.041 16.507 C 7.036 16.502 7.03 16.496 7.025 16.491 C 7.02 16.485 7.014 16.48 7.008 16.474 C 7.003 16.469 6.997 16.463 6.991 16.458 C 6.985 16.453 6.979 16.447 6.973 16.442 C 6.966 16.437 6.96 16.431 6.953 16.426 C 6.947 16.421 6.94 16.416 6.933 16.411 C 6.926 16.405 6.919 16.4 6.912 16.395 C 6.905 16.39 6.897 16.385 6.89 16.38 C 6.882 16.375 6.875 16.37 6.867 16.365 C 6.859 16.36 6.851 16.355 6.843 16.35 C 6.835 16.346 6.827 16.341 6.819 16.336 C 6.811 16.331 6.802 16.326 6.793 16.322 C 6.785 16.317 6.776 16.312 6.767 16.308 C 6.758 16.303 6.749 16.299 6.74 16.294 C 6.731 16.29 6.722 16.285 6.713 16.281 C 6.703 16.276 6.694 16.272 6.684 16.268 C 6.674 16.263 6.665 16.259 6.655 16.255 C 6.645 16.251 6.635 16.247 6.625 16.242 C 6.615 16.238 6.604 16.234 6.594 16.23 C 6.584 16.226 6.573 16.222 6.563 16.218 C 6.552 16.214 6.541 16.21 6.53 16.207 C 6.52 16.203 6.509 16.199 6.498 16.195 C 6.487 16.192 6.475 16.188 6.464 16.184 C 6.453 16.181 6.442 16.177 6.43 16.174 C 6.419 16.17 6.407 16.167 6.395 16.163 C 6.384 16.16 6.372 16.157 6.36 16.153 C 6.348 16.15 6.336 16.147 6.324 16.144 C 6.312 16.14 6.299 16.137 6.287 16.134 C 6.275 16.131 6.262 16.128 6.25 16.125 C 6.237 16.122 6.225 16.12 6.212 16.117 C 6.2 16.114 6.187 16.111 6.174 16.108 C 6.161 16.106 6.148 16.103 6.135 16.101 C 6.122 16.098 6.109 16.095 6.096 16.093 C 6.082 16.091 6.069 16.088 6.056 16.086 C 6.042 16.084 6.03 16.081 6.018 16.079 C 6.007 16.077 5.996 16.075 5.986 16.073 C 5.975 16.071 5.966 16.069 5.956 16.067 C 5.946 16.065 5.937 16.063 5.928 16.061 C 5.918 16.06 5.908 16.058 5.899 16.056 C 5.889 16.055 5.878 16.053 5.868 16.052 C 5.857 16.05 5.845 16.049 5.833 16.047 C 5.82 16.046 5.807 16.045 5.792 16.043 C 5.778 16.042 5.766 16.041 5.755 16.04 C 5.745 16.039 5.737 16.037 5.729 16.036 C 5.722 16.035 5.716 16.034 5.711 16.033 C 5.705 16.031 5.701 16.03 5.696 16.029 C 5.691 16.027 5.686 16.026 5.681 16.025 C 5.675 16.023 5.669 16.022 5.662 16.02 C 5.654 16.019 5.646 16.017 5.635 16.016 C 5.624 16.014 5.612 16.012 5.597 16.01 L 5.456 15.87 L 5.315 15.73 L 5.174 15.589 L 5.032 15.449 L 4.891 15.308 L 4.75 15.168 L 4.609 15.027 L 4.468 14.887 L 4.62 14.701 L 4.773 14.515 L 4.926 14.329 L 5.079 14.143 L 5.231 13.956 L 5.384 13.77 L 5.537 13.584 L 5.689 13.398 C 6.111 13.437 6.533 13.471 6.957 13.5 C 7.381 13.53 7.806 13.554 8.232 13.574 C 8.659 13.593 9.086 13.608 9.515 13.618 C 9.944 13.628 10.374 13.633 10.805 13.634 C 11.237 13.634 11.67 13.63 12.104 13.62 C 12.538 13.611 12.973 13.597 13.41 13.578 C 13.846 13.559 14.284 13.535 14.723 13.506 C 15.163 13.477 15.603 13.443 16.045 13.404 L 16.193 13.592 L 16.341 13.779 L 16.489 13.966 L 16.637 14.154 L 16.785 14.341 L 16.933 14.528 L 17.081 14.715 L 17.229 14.903 L 17.085 15.041 L 16.942 15.18 L 16.799 15.318 L 16.655 15.457 L 16.512 15.595 L 16.368 15.734 L 16.225 15.872 L 16.021 16.028 C 15.842 16.055 15.729 16.07 15.62 16.088 C 15.512 16.106 15.409 16.129 15.313 16.155 C 15.217 16.181 15.127 16.211 15.045 16.244 C 14.963 16.277 14.889 16.313 14.824 16.352 C 14.759 16.391 14.703 16.432 14.658 16.476 C 14.612 16.519 14.576 16.565 14.552 16.613 C 14.528 16.66 14.515 16.709 14.515 16.76 C 14.515 16.81 14.528 16.859 14.552 16.906 C 14.576 16.954 14.612 17 14.658 17.043 C 14.703 17.087 14.759 17.128 14.824 17.167 C 14.889 17.206 14.963 17.242 15.045 17.275 C 15.127 17.308 15.217 17.338 15.313 17.364 C 15.409 17.39 15.512 17.413 15.62 17.431 C 15.729 17.45 15.842 17.464 15.96 17.474 C 16.078 17.483 16.2 17.488 16.325 17.488 C 16.45 17.488 16.572 17.483 16.689 17.474 C 16.807 17.464 16.921 17.45 17.029 17.431 C 17.137 17.413 17.24 17.39 17.336 17.364 C 17.433 17.338 17.522 17.308 17.604 17.275 C 17.686 17.242 17.76 17.206 17.825 17.167 C 17.89 17.128 17.946 17.087 17.992 17.043 C 18.038 17 18.073 16.954 18.097 16.906 C 18.121 16.859 18.134 16.81 18.134 16.76 C 18.134 16.709 18.121 16.66 18.097 16.613 C 18.073 16.565 18.038 16.519 17.992 16.476 C 17.946 16.432 17.89 16.391 17.825 16.352 C 17.76 16.313 17.686 16.277 17.606 16.243 L 17.498 16.159 Z M 11.008 5.661 L 11.027 5.661 L 11.047 5.661 L 11.066 5.661 L 11.085 5.661 L 11.105 5.661 L 11.124 5.66 L 11.143 5.66 L 11.163 5.66 C 11.538 5.694 11.896 5.746 12.238 5.816 C 12.579 5.886 12.903 5.974 13.21 6.079 C 13.517 6.184 13.807 6.308 14.08 6.449 C 14.353 6.59 14.609 6.749 14.848 6.926 C 15.087 7.103 15.309 7.297 15.514 7.51 C 15.718 7.723 15.906 7.953 16.077 8.202 C 16.248 8.45 16.402 8.717 16.539 9.001 C 16.676 9.286 16.795 9.588 16.898 9.908 C 16.393 9.862 15.888 9.822 15.384 9.786 C 14.88 9.751 14.377 9.721 13.875 9.697 C 13.373 9.672 12.873 9.653 12.373 9.64 C 11.874 9.627 11.375 9.62 10.879 9.619 C 10.382 9.618 9.887 9.623 9.394 9.634 C 8.901 9.645 8.409 9.662 7.92 9.686 C 7.43 9.709 6.943 9.739 6.458 9.776 C 5.973 9.813 5.49 9.856 5.009 9.906 C 5.112 9.576 5.24 9.262 5.391 8.964 C 5.542 8.667 5.715 8.386 5.909 8.122 C 6.104 7.859 6.318 7.614 6.55 7.389 C 6.781 7.164 7.031 6.958 7.295 6.773 C 7.559 6.588 7.838 6.425 8.13 6.283 C 8.421 6.142 8.725 6.024 9.038 5.929 C 9.351 5.834 9.673 5.764 10.002 5.718 C 10.332 5.673 10.668 5.654 11.008 5.661 Z"/>
  <defs>
    <bx:grid x="0" y="0" width="22" height="22"/>
  </defs>
</svg>