<?xml version="1.0" encoding="utf-8"?>
<svg viewBox="0 0 22 22" xmlns="http://www.w3.org/2000/svg">
  <path style="fill: rgb(123, 130, 227);" d="M 9.93 21.703 C 9.931 21.705 9.933 21.706 9.934 21.708 L 9.935 21.718 Z M 9.884 21.206 L 9.896 19.649 L 9.721 19.518 L 9.518 19.291 L 9.356 19.04 L 8.871 18.063 L 8.569 17.444 L 8.518 17.209 L 8.569 16.995 L 7.648 15.605 L 6.226 13.556 L 4.661 11.254 L 3.1 9.046 L 2.6 8.299 L 2.612 7.819 L 2.624 7.426 L 2.7 6.899 C 3.223 4.679 4.011 3.375 5.738 1.806 C 9.097 -0.564 13.026 -0.638 16.254 1.804 C 17.78 2.958 18.859 4.513 19.362 6.614 C 19.484 7.167 19.531 7.745 19.469 8.34 L 18.895 9.156 L 17.573 11.09 L 15.678 13.805 L 14.491 15.53 L 13.538 16.972 L 13.585 17.254 L 12.568 19.347 L 12.235 19.617 L 12.207 20.308 L 12.235 21.083 L 12.171 21.647 L 12.169 21.694 C 11.75 22.339 11.356 21.776 11.311 21.702 L 11.298 21.647 L 11.258 21.21 L 11.226 20.602 L 10.857 20.562 L 10.865 21.297 L 10.783 21.692 C 10.769 21.699 10.417 22.26 9.934 21.708 Z M 11.417 18.31 L 11.532 18.322 L 11.667 18.354 L 11.834 18.366 L 11.925 18.43 L 12.08 18.513 L 12.175 18.318 L 12.33 18.032 L 12.457 17.758 L 12.684 17.345 L 13.009 16.912 L 14.638 14.526 L 15.511 13.243 L 17.374 10.582 L 19.013 8.216 C 18.989 7.986 18.939 7.768 18.87 7.554 C 18.806 7.356 18.704 7.189 18.563 7.052 C 18.435 6.928 18.296 6.822 18.144 6.733 C 17.982 6.638 17.812 6.565 17.634 6.513 C 17.405 6.447 17.181 6.439 16.962 6.488 C 16.741 6.539 16.528 6.611 16.323 6.704 C 16.154 6.781 16.024 6.875 15.933 6.986 C 15.696 7.276 15.495 7.634 15.389 8.087 L 14.61 10.654 L 12.68 16.008 L 12.144 15.543 L 13.22 12.584 L 14.907 8.229 C 14.876 8.036 14.831 7.85 14.78 7.666 C 14.68 7.297 14.489 7.019 14.208 6.833 C 13.958 6.666 13.692 6.543 13.412 6.463 C 13.284 6.427 13.158 6.42 13.034 6.443 C 12.087 6.614 11.516 7.115 11.317 7.951 L 11.302 9.738 L 11.29 12.162 L 11.294 15.149 L 10.813 15.156 L 10.813 13.054 L 10.789 9.396 L 10.789 7.963 C 10.696 7.704 10.667 7.537 10.569 7.32 C 10.422 6.991 10.138 6.782 9.849 6.663 C 9.536 6.534 9.217 6.467 8.89 6.463 C 8.49 6.459 8.161 6.573 7.903 6.808 C 7.508 7.167 7.27 7.618 7.185 8.178 L 8.379 11.322 L 9.967 15.454 L 9.435 16.018 L 9.042 14.966 L 8.482 13.342 L 7.985 11.928 L 7.29 9.994 L 6.657 7.953 C 6.424 6.983 5.809 6.48 4.809 6.447 C 4.212 6.427 3.712 6.756 3.312 7.434 C 3.176 7.664 3.105 7.921 3.1 8.206 L 3.1 8.268 L 4.289 9.957 L 6.599 13.263 L 8.47 15.995 L 8.899 16.555 L 9.042 16.845 L 9.153 16.996 L 9.28 17.115 L 9.391 17.218 L 9.471 17.349 L 9.618 17.667 L 9.808 18.116 L 10.031 18.501 L 10.082 18.469 L 10.142 18.426 L 10.178 18.394 L 10.249 18.342 L 10.313 18.303 L 10.38 18.295 L 10.527 18.291 L 10.702 18.299 L 10.721 18.243 C 10.694 18.239 10.656 18.215 10.586 18.186 C 10.515 18.156 10.449 18.12 10.386 18.077 C 10.324 18.035 10.266 17.987 10.212 17.934 C 10.159 17.881 10.111 17.823 10.069 17.76 C 10.027 17.698 9.991 17.631 9.961 17.561 C 9.931 17.491 9.908 17.417 9.893 17.341 C 9.877 17.264 9.869 17.185 9.869 17.104 C 9.869 17.023 9.877 16.944 9.893 16.868 C 9.908 16.791 9.931 16.718 9.961 16.647 C 9.991 16.577 10.027 16.51 10.069 16.448 C 10.111 16.385 10.159 16.327 10.212 16.274 C 10.266 16.221 10.324 16.173 10.386 16.131 C 10.449 16.089 10.515 16.052 10.586 16.023 C 10.656 15.993 10.729 15.97 10.806 15.954 C 10.882 15.939 10.961 15.93 11.042 15.93 C 11.123 15.93 11.203 15.939 11.279 15.954 C 11.355 15.97 11.429 15.993 11.499 16.023 C 11.57 16.052 11.636 16.089 11.699 16.131 C 11.761 16.173 11.819 16.221 11.872 16.274 C 11.926 16.327 11.974 16.385 12.016 16.448 C 12.058 16.51 12.094 16.577 12.124 16.647 C 12.154 16.718 12.177 16.791 12.192 16.868 C 12.208 16.944 12.216 17.023 12.216 17.104 C 12.216 17.185 12.208 17.264 12.192 17.341 C 12.177 17.417 12.154 17.491 12.124 17.561 C 12.094 17.631 12.058 17.698 12.016 17.76 C 11.974 17.823 11.926 17.881 11.872 17.934 C 11.819 17.987 11.761 18.035 11.699 18.077 C 11.636 18.12 11.57 18.156 11.499 18.186 C 11.429 18.215 11.451 18.228 11.375 18.243 Z"/>
</svg>