<?xml version="1.0" encoding="utf-8"?>
<!-- Generator: Adobe Illustrator 16.0.3, SVG Export Plug-In . SVG Version: 6.00 Build 0)  -->
<!DOCTYPE svg PUBLIC "-//W3C//DTD SVG 1.1//EN" "http://www.w3.org/Graphics/SVG/1.1/DTD/svg11.dtd">
<svg version="1.1" xmlns="http://www.w3.org/2000/svg" xmlns:xlink="http://www.w3.org/1999/xlink" x="0px" y="0px"
    width="30px" height="30px" viewBox="0 0 30 30" enable-background="new 0 0 30 30" xml:space="preserve">
    <g id="B3-Parachutist_x5F_Skydiver">
        <g>
            <path fill="none" stroke="#FFFFFF" stroke-miterlimit="10" d="M15.527,23.1c0.083-0.01,0.162-0.029,0.242-0.049l-0.242,0.01V23.1z
			" />
            <polygon fill="none" stroke="#FFFFFF" stroke-miterlimit="10"
                points="15.516,23.061 15.516,23.063 15.516,23.061 		" />
            <polygon fill="none" stroke="#FFFFFF" stroke-miterlimit="10"
                points="15.477,23.061 15.477,23.063 15.477,23.061 		" />
            <path fill="none" stroke="#FFFFFF" stroke-miterlimit="10" d="M15.496,23.105c0.007,0,0.013-0.003,0.02-0.004v-0.039l-0.02-0.001
			l-0.02,0.001v0.039C15.483,23.103,15.489,23.105,15.496,23.105z" />
            <path fill="none" stroke="#FFFFFF" stroke-miterlimit="10" d="M23.039,10.281c-1.08-0.533-2.344,0.469-2.344,0.469l-3.469,9.844
			l-0.516-0.438l2.969-8.016c0,0,0.034-1.64-1.531-1.984c-1.703-0.375-2.406,1.578-2.406,1.578l-0.047,7.891h-0.172h-0.055h-0.172
			l-0.047-7.891c0,0-0.703-1.953-2.406-1.578c-1.565,0.345-1.531,1.984-1.531,1.984l2.969,8.016l-0.516,0.438l-3.469-9.844
			c0,0-1.264-1.001-2.344-0.469c-1.141,0.563-1.188,1.781-1.188,1.781l4.422,6.469l1.099,1.617l1.167,1.68l0.297,0.328l0.703,1.281
			c0,0,0-0.109,0.297-0.234s0.438-0.063,0.438-0.063l-0.047-0.094l0.083,0.004c-0.545-0.135-0.958-0.604-0.958-1.191
			c0-0.677,0.54-1.221,1.211-1.242v-0.008c0.007,0,0.013,0.004,0.02,0.004s0.013-0.004,0.02-0.004v0.008
			c0.671,0.021,1.211,0.565,1.211,1.242c0,0.587-0.412,1.057-0.957,1.191l0.082-0.004l-0.047,0.094c0,0,0.141-0.063,0.438,0.063
			s0.297,0.234,0.297,0.234l0.703-1.281l0.297-0.328l1.167-1.68l1.099-1.617l4.422-6.469C24.227,12.063,24.18,10.844,23.039,10.281z
			" />
            <path fill="none" stroke="#FFFFFF" stroke-miterlimit="10" d="M15.465,23.061l-0.242-0.01c0.08,0.02,0.159,0.039,0.242,0.049
			V23.061z" />
            <path fill="none" stroke="#FFFFFF" stroke-miterlimit="10" d="M21.992,5.719c-2.754-2.713-6.408-2.75-6.492-2.75l0,0h-0.004
			h-0.004l0,0c-0.084,0-3.738,0.037-6.492,2.75c-3.109,3.063-2.719,6.469-2.719,6.469l6.5,9.453c0,0-0.047,0.031,0,0.375
			s0.906,1.859,1.063,2.125s0.453,0.5,0.453,0.5l-0.047,2.063c0,0,0.156,0.484,0.531,0.453s0.531-0.438,0.531-0.438l0.078-1.047
			h0.07h0.07h0.07l0.078,1.047c0,0,0.156,0.406,0.531,0.438s0.531-0.453,0.531-0.453l-0.047-2.063c0,0,0.297-0.234,0.453-0.5
			s1.016-1.781,1.063-2.125s0-0.375,0-0.375l6.5-9.453C24.711,12.188,25.102,8.781,21.992,5.719z M15.496,23.062l0.02,0.001v-0.002
			l0,0v0.002v0.039c-0.007,0.001-0.013,0.004-0.02,0.004s-0.013-0.003-0.02-0.004v-0.039v-0.002l0,0v0.002L15.496,23.062z
			 M19.805,18.531l-1.099,1.617l-1.167,1.68l-0.297,0.328l-0.703,1.281c0,0,0-0.109-0.297-0.234s-0.438-0.063-0.438-0.063
			l0.047-0.094l-0.082,0.004c-0.08,0.02-0.159,0.039-0.242,0.049v-0.039l0.242-0.01c0.545-0.135,0.957-0.604,0.957-1.191
			c0-0.677-0.54-1.221-1.211-1.242v-0.008c-0.007,0-0.013,0.004-0.02,0.004s-0.013-0.004-0.02-0.004v0.008
			c-0.671,0.021-1.211,0.565-1.211,1.242c0,0.587,0.413,1.057,0.958,1.191l0.242,0.01V23.1c-0.083-0.01-0.162-0.029-0.242-0.049
			l-0.083-0.004l0.047,0.094c0,0-0.141-0.063-0.438,0.063s-0.297,0.234-0.297,0.234l-0.703-1.281l-0.297-0.328l-1.167-1.68
			l-1.099-1.617l-4.422-6.469c0,0,0.047-1.219,1.188-1.781c1.08-0.533,2.344,0.469,2.344,0.469l3.469,9.844l0.516-0.438
			l-2.969-8.016c0,0-0.034-1.64,1.531-1.984c1.703-0.375,2.406,1.578,2.406,1.578l0.047,7.891h0.172h0.055h0.172l0.047-7.891
			c0,0,0.703-1.953,2.406-1.578c1.565,0.345,1.531,1.984,1.531,1.984l-2.969,8.016l0.516,0.438l3.469-9.844
			c0,0,1.264-1.001,2.344-0.469c1.141,0.563,1.188,1.781,1.188,1.781L19.805,18.531z" />
        </g>
        <g>
            <path fill="none" d="M15.527,23.1c0.083-0.01,0.162-0.029,0.242-0.049l-0.242,0.01V23.1z" />
            <polygon fill="none" points="15.516,23.061 15.516,23.063 15.516,23.061 		" />
            <polygon fill="none" points="15.477,23.061 15.477,23.063 15.477,23.061 		" />
            <path fill="none" d="M15.496,23.105c0.007,0,0.013-0.003,0.02-0.004v-0.039l-0.02-0.001l-0.02,0.001v0.039
			C15.483,23.103,15.489,23.105,15.496,23.105z" />
            <path fill="none" d="M23.039,10.281c-1.08-0.533-2.344,0.469-2.344,0.469l-3.469,9.844l-0.516-0.438l2.969-8.016
			c0,0,0.034-1.64-1.531-1.984c-1.703-0.375-2.406,1.578-2.406,1.578l-0.047,7.891h-0.172h-0.055h-0.172l-0.047-7.891
			c0,0-0.703-1.953-2.406-1.578c-1.565,0.345-1.531,1.984-1.531,1.984l2.969,8.016l-0.516,0.438l-3.469-9.844
			c0,0-1.264-1.001-2.344-0.469c-1.141,0.563-1.188,1.781-1.188,1.781l4.422,6.469l1.099,1.617l1.167,1.68l0.297,0.328l0.703,1.281
			c0,0,0-0.109,0.297-0.234s0.438-0.063,0.438-0.063l-0.047-0.094l0.083,0.004c-0.545-0.135-0.958-0.604-0.958-1.191
			c0-0.677,0.54-1.221,1.211-1.242v-0.008c0.007,0,0.013,0.004,0.02,0.004s0.013-0.004,0.02-0.004v0.008
			c0.671,0.021,1.211,0.565,1.211,1.242c0,0.587-0.412,1.057-0.957,1.191l0.082-0.004l-0.047,0.094c0,0,0.141-0.063,0.438,0.063
			s0.297,0.234,0.297,0.234l0.703-1.281l0.297-0.328l1.167-1.68l1.099-1.617l4.422-6.469C24.227,12.063,24.18,10.844,23.039,10.281z
			" />
            <path fill="none" d="M15.465,23.061l-0.242-0.01c0.08,0.02,0.159,0.039,0.242,0.049V23.061z" />
            <path fill="#C1C1C1" d="M21.992,5.719c-2.754-2.713-6.408-2.75-6.492-2.75l0,0h-0.004h-0.004l0,0c-0.084,0-3.738,0.037-6.492,2.75
			c-3.109,3.063-2.719,6.469-2.719,6.469l6.5,9.453c0,0-0.047,0.031,0,0.375s0.906,1.859,1.063,2.125s0.453,0.5,0.453,0.5
			l-0.047,2.063c0,0,0.156,0.484,0.531,0.453s0.531-0.438,0.531-0.438l0.078-1.047h0.07h0.07h0.07l0.078,1.047
			c0,0,0.156,0.406,0.531,0.438s0.531-0.453,0.531-0.453l-0.047-2.063c0,0,0.297-0.234,0.453-0.5s1.016-1.781,1.063-2.125
			s0-0.375,0-0.375l6.5-9.453C24.711,12.188,25.102,8.781,21.992,5.719z M15.496,23.062l0.02,0.001v-0.002l0,0v0.002v0.039
			c-0.007,0.001-0.013,0.004-0.02,0.004s-0.013-0.003-0.02-0.004v-0.039v-0.002l0,0v0.002L15.496,23.062z M19.805,18.531
			l-1.099,1.617l-1.167,1.68l-0.297,0.328l-0.703,1.281c0,0,0-0.109-0.297-0.234s-0.438-0.063-0.438-0.063l0.047-0.094l-0.082,0.004
			c-0.08,0.02-0.159,0.039-0.242,0.049v-0.039l0.242-0.01c0.545-0.135,0.957-0.604,0.957-1.191c0-0.677-0.54-1.221-1.211-1.242
			v-0.008c-0.007,0-0.013,0.004-0.02,0.004s-0.013-0.004-0.02-0.004v0.008c-0.671,0.021-1.211,0.565-1.211,1.242
			c0,0.587,0.413,1.057,0.958,1.191l0.242,0.01V23.1c-0.083-0.01-0.162-0.029-0.242-0.049l-0.083-0.004l0.047,0.094
			c0,0-0.141-0.063-0.438,0.063s-0.297,0.234-0.297,0.234l-0.703-1.281l-0.297-0.328l-1.167-1.68l-1.099-1.617l-4.422-6.469
			c0,0,0.047-1.219,1.188-1.781c1.08-0.533,2.344,0.469,2.344,0.469l3.469,9.844l0.516-0.438l-2.969-8.016
			c0,0-0.034-1.64,1.531-1.984c1.703-0.375,2.406,1.578,2.406,1.578l0.047,7.891h0.172h0.055h0.172l0.047-7.891
			c0,0,0.703-1.953,2.406-1.578c1.565,0.345,1.531,1.984,1.531,1.984l-2.969,8.016l0.516,0.438l3.469-9.844
			c0,0,1.264-1.001,2.344-0.469c1.141,0.563,1.188,1.781,1.188,1.781L19.805,18.531z" />
        </g>
    </g>
</svg>
