<?xml version="1.0" encoding="utf-8"?>
<!-- Generator: Adobe Illustrator 16.0.0, SVG Export Plug-In . SVG Version: 6.00 Build 0)  -->
<!DOCTYPE svg PUBLIC "-//W3C//DTD SVG 1.1//EN" "http://www.w3.org/Graphics/SVG/1.1/DTD/svg11.dtd">
<svg version="1.1" id="Capa_1" xmlns="http://www.w3.org/2000/svg" xmlns:xlink="http://www.w3.org/1999/xlink" x="0px" y="0px"
	 width="30px" height="30px" viewBox="0 0 30 30" enable-background="new 0 0 30 30" xml:space="preserve">
<g>
	<path fill="#FFFFFF" d="M27.902,15.618l-8.682-4.962V5.46c0-1.02-0.392-2.322-1.025-3.39C17.402,0.732,16.389,0,15.333,0
		c-1.056,0-2.07,0.738-2.862,2.07c-0.63,1.068-1.026,2.37-1.026,3.39v5.196l-8.682,4.962c-0.474,0.271-0.768,0.78-0.768,1.325v3.223
		c0,0.486,0.222,0.93,0.606,1.219c0.384,0.287,0.876,0.383,1.338,0.245l7.506-2.142v3.714l-2.538,1.907
		c-0.384,0.289-0.612,0.744-0.612,1.219v1.968c0,0.474,0.216,0.912,0.588,1.2c0.27,0.21,0.6,0.324,0.936,0.324
		c0.126,0,0.252-0.02,0.372-0.049l0.012-0.006l5.13-1.494l5.112,1.486l0.029,0.008c0.457,0.112,0.937,0.012,1.309-0.275
		c0.371-0.295,0.588-0.732,0.588-1.2v-1.968c0-0.48-0.229-0.938-0.612-1.219l-2.538-1.901v-3.714l7.506,2.142
		c0.463,0.132,0.955,0.042,1.338-0.245c0.387-0.289,0.606-0.732,0.606-1.219v-3.223C28.671,16.398,28.377,15.889,27.902,15.618z
		 M27.129,20.215l-9.384-2.683v6.407l3.132,2.347c0.012,0.013,0.018,0.024,0.018,0.042v1.968c0,0.007,0,0.024-0.018,0.036
		c-0.012,0.012-0.029,0.012-0.036,0.012l-5.508-1.607l-5.508,1.607c-0.006,0-0.024,0-0.036-0.012
		c-0.018-0.012-0.018-0.029-0.018-0.036v-1.968c0-0.018,0.006-0.029,0.018-0.042l3.132-2.347v-6.407l-9.39,2.683
		c-0.006,0-0.024,0.006-0.042-0.007c-0.018-0.013-0.018-0.03-0.018-0.042v-3.223c0-0.02,0.012-0.035,0.024-0.041l9.426-5.388V5.46
		c0-1.572,1.296-3.984,2.412-3.984s2.412,2.412,2.412,3.984v6.054l9.426,5.388c0.019,0.006,0.024,0.021,0.024,0.041v3.223
		c0,0.006,0,0.023-0.02,0.042C27.152,20.221,27.141,20.215,27.129,20.215z"/>
</g>
<path fill="#C9CEEA" d="M27.171,16.902l-9.426-5.388V5.46c0-1.572-1.296-3.984-2.412-3.984s-2.412,2.412-2.412,3.984v6.054
	l-9.426,5.382c-0.018,0.006-0.024,0.021-0.024,0.041v3.223c0,0.006,0,0.023,0.018,0.042c0.018,0.013,0.036,0.013,0.042,0.006
	l9.39-2.676v6.407l-3.132,2.347c-0.012,0.013-0.018,0.024-0.018,0.042v1.968c0,0.007,0,0.024,0.018,0.036
	c0.012,0.012,0.024,0.012,0.036,0.012l5.508-1.607l5.508,1.607c0.007,0,0.024,0,0.036-0.012c0.018-0.012,0.018-0.029,0.018-0.036
	v-1.968c0-0.018-0.006-0.029-0.018-0.042l-3.132-2.347v-6.407l9.384,2.683c0.006,0,0.023,0.006,0.042-0.007s0.019-0.03,0.019-0.042
	v-3.223C27.195,16.926,27.184,16.908,27.171,16.902z"/>
</svg>
