<?xml version="1.0" encoding="utf-8"?>
<!-- Generator: Adobe Illustrator 16.0.3, SVG Export Plug-In . SVG Version: 6.00 Build 0)  -->
<!DOCTYPE svg PUBLIC "-//W3C//DTD SVG 1.1//EN" "http://www.w3.org/Graphics/SVG/1.1/DTD/svg11.dtd">
<svg version="1.1" xmlns="http://www.w3.org/2000/svg" xmlns:xlink="http://www.w3.org/1999/xlink" x="0px" y="0px" width="30px"
	 height="30px" viewBox="0 0 30 30" enable-background="new 0 0 30 30" xml:space="preserve">
<g id="A1-Light">
	<path stroke="#2B62AE" stroke-width="3" stroke-miterlimit="10" d="M15.484,26.188c0,0-0.266-0.063-0.344-0.141
		c-0.173-0.173-0.156-0.547-0.156-0.547l-3.234-0.094c0,0-0.875,0.016-0.938-1.016s1.063-1.141,1.063-1.141l3.016-0.203L14.5,15.516
		c0,0-7.56-0.024-9-0.453c-1.891-0.563-1.906-1.98-1.922-2.453c-0.063-1.922,1.813-2.047,1.813-2.047l9.063-0.328
		c0,0-0.016-0.875,0-2.219s1.026-1.365,1.026-1.365h-0.014c0,0,1.011,0.021,1.026,1.365s0,2.219,0,2.219l9.063,0.328
		c0,0,1.875,0.125,1.813,2.047c-0.016,0.473-0.031,1.891-1.922,2.453c-1.44,0.429-9,0.453-9,0.453l-0.391,7.531l3.016,0.203
		c0,0,1.125,0.109,1.063,1.141s-0.938,1.016-0.938,1.016L15.961,25.5c0,0,0.017,0.374-0.156,0.547
		c-0.078,0.078-0.344,0.141-0.344,0.141"/>
	<path fill="#FFF" d="M15.461,26.188c0,0,0.266-0.063,0.344-0.141c0.173-0.173,0.156-0.547,0.156-0.547l3.234-0.094
		c0,0,0.875,0.016,0.938-1.016S19.07,23.25,19.07,23.25l-3.016-0.203l0.391-7.531c0,0,7.56-0.024,9-0.453
		c1.891-0.563,1.906-1.98,1.922-2.453c0.063-1.922-1.813-2.047-1.813-2.047l-9.063-0.328c0,0,0.016-0.875,0-2.219
		S15.466,6.65,15.466,6.65h0.014c0,0-1.011,0.021-1.026,1.365s0,2.219,0,2.219l-9.063,0.328c0,0-1.875,0.125-1.813,2.047
		C3.594,13.082,3.609,14.5,5.5,15.063c1.44,0.429,9,0.453,9,0.453l0.391,7.531l-3.016,0.203c0,0-1.125,0.109-1.063,1.141
		s0.938,1.016,0.938,1.016l3.234,0.094c0,0-0.017,0.374,0.156,0.547c0.078,0.078,0.344,0.141,0.344,0.141"/>
</g>
</svg>
