<?xml version="1.0" encoding="utf-8"?>
<!-- Generator: Adobe Illustrator 16.0.3, SVG Export Plug-In . SVG Version: 6.00 Build 0)  -->
<!DOCTYPE svg PUBLIC "-//W3C//DTD SVG 1.1//EN" "http://www.w3.org/Graphics/SVG/1.1/DTD/svg11.dtd">
<svg version="1.1" xmlns="http://www.w3.org/2000/svg" xmlns:xlink="http://www.w3.org/1999/xlink" x="0px" y="0px"
    width="30px" height="30px" viewBox="0 0 30 30" enable-background="new 0 0 30 30" xml:space="preserve">
    <g id="A2-Small-_x28_15-500-to-75-000-lbs">
        <path stroke="#FFF" stroke-width="3" stroke-miterlimit="10" d="M15.484,27.5c0,0-0.078-0.031-0.078-0.25
		c0-0.161-3.781,0.781-3.781,0.781s-0.016-0.859,0-1.25s3.406-2.156,3.406-2.156l-0.406-3.328l-0.641,0.016c0,0,0-0.781-0.172-0.844
		s-0.172,0.25-0.172,0.25h-0.406c0,0-0.156,0-0.281-0.25s-0.281-2.578-0.281-2.578l-7.078,0.203c0,0-0.125-0.5-0.156-0.859
		s0.031-2.906,0.031-3.828s0.328-1.656,0.5-1.641s0.484,0.922,0.5,1.672s0.016,1.781,0.016,1.781l1.078-0.016l6.5-2L14,7.063
		c0,0-0.047-0.859,0.406-2.703s1.078-2.484,1.078-2.484h-0.048c0,0,0.625,0.641,1.078,2.484s0.406,2.703,0.406,2.703l-0.063,6.141
		l6.5,2l1.078,0.016c0,0,0-1.031,0.016-1.781s0.328-1.656,0.5-1.672s0.5,0.719,0.5,1.641s0.063,3.469,0.031,3.828
		s-0.156,0.859-0.156,0.859l-7.078-0.203c0,0-0.156,2.328-0.281,2.578s-0.281,0.25-0.281,0.25H17.28c0,0,0-0.313-0.172-0.25
		s-0.172,0.844-0.172,0.844l-0.641-0.016l-0.406,3.328c0,0,3.391,1.766,3.406,2.156s0,1.25,0,1.25s-3.781-0.942-3.781-0.781
		c0,0.219-0.078,0.25-0.078,0.25" />
        <path fill="#2B62AE"
            d="M15.437,27.5c0,0,0.078-0.031,0.078-0.25c0-0.161,3.781,0.781,3.781,0.781s0.016-0.859,0-1.25
		s-3.406-2.156-3.406-2.156l0.406-3.328l0.641,0.016c0,0,0-0.781,0.172-0.844s0.172,0.25,0.172,0.25h0.406c0,0,0.156,0,0.281-0.25
		s0.281-2.578,0.281-2.578l7.078,0.203c0,0,0.125-0.5,0.156-0.859s-0.031-2.906-0.031-3.828s-0.328-1.656-0.5-1.641
		s-0.484,0.922-0.5,1.672s-0.016,1.781-0.016,1.781l-1.078-0.016l-6.5-2l0.063-6.141c0,0,0.047-0.859-0.406-2.703
		s-1.078-2.484-1.078-2.484h0.048c0,0-0.625,0.641-1.078,2.484S14,7.063,14,7.063l0.063,6.141l-6.5,2l-1.078,0.016
		c0,0,0-1.031-0.016-1.781s-0.328-1.656-0.5-1.672s-0.5,0.719-0.5,1.641s-0.063,3.469-0.031,3.828s0.156,0.859,0.156,0.859
		l7.078-0.203c0,0,0.156,2.328,0.281,2.578s0.281,0.25,0.281,0.25h0.406c0,0,0-0.313,0.172-0.25s0.172,0.844,0.172,0.844
		l0.641-0.016l0.406,3.328c0,0-3.391,1.766-3.406,2.156s0,1.25,0,1.25s3.781-0.942,3.781-0.781c0,0.219,0.078,0.25,0.078,0.25" />
    </g>
</svg>
