<?xml version="1.0" encoding="utf-8"?>
<!-- Generator: Adobe Illustrator 16.0.3, SVG Export Plug-In . SVG Version: 6.00 Build 0)  -->
<!DOCTYPE svg PUBLIC "-//W3C//DTD SVG 1.1//EN" "http://www.w3.org/Graphics/SVG/1.1/DTD/svg11.dtd">
<svg version="1.1" xmlns="http://www.w3.org/2000/svg" xmlns:xlink="http://www.w3.org/1999/xlink" x="0px" y="0px"
    width="30px" height="30px" viewBox="0 0 30 30" enable-background="new 0 0 30 30" xml:space="preserve">

    <g>
        <path stroke="#FFF" stroke-width="3" stroke-miterlimit="10" d="M15.542,27
		c-0.166-0.063-0.104-0.354-0.104-0.354s-3.943,2.159-4.229,2.271c-0.104,0.041,0.063-1.5,0.063-1.5l3.896-3.354l-0.292-1
		c0,0-0.266-0.281-0.5-0.25s-0.938-0.021-1.188-0.042s-0.771-4.604-0.313-4.646s0.938-0.208,1.229,0
		c0.188,0.125,0.104,0.229,0.104,0.229l0.333-0.021l-0.229-1.771l-2.333,0.25L9.125,17.5l-6.354,3.229l0.271-1.25l11.292-8.729
		c0,0-0.083-5.313,0.125-6.417s1.026-2.505,1.083-2.25h-0.024c0.058-0.255,0.875,1.146,1.083,2.25
		c0.209,1.104,0.125,6.417,0.125,6.417l11.292,8.729l0.271,1.25L21.935,17.5l-2.854-0.688l-2.333-0.25l-0.229,1.771l0.333,0.021
		c0,0-0.083-0.104,0.104-0.229c0.292-0.208,0.771-0.042,1.229,0c0.458,0.042-0.063,4.624-0.313,4.646s-0.953,0.073-1.188,0.042
		s-0.5,0.25-0.5,0.25l-0.292,1l3.896,3.354c0,0,0.167,1.541,0.063,1.5c-0.286-0.112-4.229-2.271-4.229-2.271
		s0.062,0.292-0.104,0.354" />
        <path fill="#828282" d="M15.518,27c0.166-0.063,0.104-0.354,0.104-0.354s3.942,2.159,4.229,2.271c0.104,0.041-0.063-1.5-0.063-1.5
		l-3.896-3.354l0.292-1c0,0,0.266-0.281,0.5-0.25s0.938-0.021,1.188-0.042s0.771-4.604,0.313-4.646
		c-0.459-0.042-0.938-0.208-1.229,0c-0.188,0.125-0.104,0.229-0.104,0.229l-0.333-0.021l0.229-1.771l2.333,0.25l2.854,0.688
		l6.354,3.229l-0.271-1.25L16.726,10.75c0,0,0.084-5.313-0.125-6.417c-0.208-1.104-1.025-2.505-1.083-2.25h0.024
		c-0.058-0.255-0.875,1.146-1.083,2.25s-0.125,6.417-0.125,6.417L3.042,19.479l-0.271,1.25L9.125,17.5l2.854-0.688l2.333-0.25
		l0.229,1.771l-0.333,0.021c0,0,0.083-0.104-0.104-0.229c-0.292-0.208-0.771-0.042-1.229,0s0.063,4.624,0.313,4.646
		s0.953,0.073,1.188,0.042s0.5,0.25,0.5,0.25l0.292,1l-3.896,3.354c0,0-0.167,1.541-0.063,1.5c0.286-0.112,4.229-2.271,4.229-2.271
		S15.376,26.938,15.542,27" />
    </g>
</svg>
