<?xml version="1.0" encoding="utf-8"?>
<!-- Generator: Adobe Illustrator 16.0.3, SVG Export Plug-In . SVG Version: 6.00 Build 0)  -->
<!DOCTYPE svg PUBLIC "-//W3C//DTD SVG 1.1//EN" "http://www.w3.org/Graphics/SVG/1.1/DTD/svg11.dtd">
<svg version="1.1" xmlns="http://www.w3.org/2000/svg" xmlns:xlink="http://www.w3.org/1999/xlink" x="0px" y="0px"
    width="30px" height="30px" viewBox="0 0 30 30" enable-background="new 0 0 30 30" xml:space="preserve">
    <g id="A7-Rotorcraft">
        <path fill="none" stroke="#FFFFFF" stroke-width="2" stroke-miterlimit="10" d="M15.5,23.938h-0.938L11.219,25.5l-0.031-1.219
		l3.281-2.188l-0.063-7.156l-0.75-0.594l-5.188,5.188c0,0-0.438,0.219-0.688-0.063S7.75,18.781,7.75,18.781l5.375-5.406
		c0,0-0.278-0.458-0.656-1.531c-0.188-0.531-0.25-2.156-0.25-2.156L7.688,5.063c0,0-0.146-0.396,0.063-0.625
		c0.313-0.344,0.719-0.063,0.719-0.063l3.938,3.875c0,0,0.688-4.063,3.094-4.031h-0.075c2.406-0.031,3.094,4.031,3.094,4.031
		l3.938-3.875c0,0,0.406-0.281,0.719,0.063c0.208,0.229,0.063,0.625,0.063,0.625l-4.531,4.625c0,0-0.063,1.625-0.25,2.156
		c-0.378,1.073-0.656,1.531-0.656,1.531l5.375,5.406c0,0,0.219,0.406-0.031,0.688s-0.688,0.063-0.688,0.063l-5.188-5.188
		l-0.75,0.594l-0.063,7.156l3.281,2.188L19.706,25.5l-3.344-1.563h-0.938" />
        <path fill="#2B62AE" d="M15.5,23.938h-0.938L11.219,25.5l-0.031-1.219l3.281-2.188l-0.063-7.156l-0.75-0.594l-5.188,5.188
		c0,0-0.438,0.219-0.688-0.063S7.75,18.781,7.75,18.781l5.375-5.406c0,0-0.278-0.458-0.656-1.531
		c-0.188-0.531-0.25-2.156-0.25-2.156L7.688,5.063c0,0-0.146-0.396,0.063-0.625c0.313-0.344,0.719-0.063,0.719-0.063l3.938,3.875
		c0,0,0.688-4.063,3.094-4.031h-0.075c2.406-0.031,3.094,4.031,3.094,4.031l3.938-3.875c0,0,0.406-0.281,0.719,0.063
		c0.208,0.229,0.063,0.625,0.063,0.625l-4.531,4.625c0,0-0.063,1.625-0.25,2.156c-0.378,1.073-0.656,1.531-0.656,1.531l5.375,5.406
		c0,0,0.219,0.406-0.031,0.688s-0.688,0.063-0.688,0.063l-5.188-5.188l-0.75,0.594l-0.063,7.156l3.281,2.188L19.706,25.5
		l-3.344-1.563h-0.938" />
    </g>
</svg>
