<?xml version="1.0" encoding="utf-8"?>
<!-- Generator: Adobe Illustrator 16.0.3, SVG Export Plug-In . SVG Version: 6.00 Build 0)  -->
<!DOCTYPE svg PUBLIC "-//W3C//DTD SVG 1.1//EN" "http://www.w3.org/Graphics/SVG/1.1/DTD/svg11.dtd">
<svg version="1.1" id="Layer_3" xmlns="http://www.w3.org/2000/svg" xmlns:xlink="http://www.w3.org/1999/xlink" x="0px" y="0px"
	 width="792px" height="612px" viewBox="0 0 792 612" enable-background="new 0 0 792 612" xml:space="preserve">
<title>heli_outline_2_exp</title>
<path fill="#FFFFFF" d="M462.504,211.14L627.744,61.2L600,30.804L464.544,167.688c0-87.108-33.252-122.4-68.748-122.4
	s-67.524,35.088-68.34,122.4L192,30.804L164.256,61.2l165.24,150.756c2.458,24.055,7.449,47.782,14.892,70.788L164.256,446.148
	L192,475.728l164.22-165.852c3.762,7.348,8.421,14.2,13.872,20.4l9.18,160.548h-42.636v23.664H380.7l3.672,65.688h23.46
	l3.672-65.688h43.86v-22.645h-42.433l8.977-160.548c5.367-6.263,10.021-13.105,13.872-20.399L600,475.728l27.744-29.579
	L447.612,281.724C455.056,258.788,460.048,235.128,462.504,211.14z"/>
<path fill="#0DC520" d="M192,30.804l135.456,136.68c0-86.904,33.252-122.4,68.34-122.4s67.932,35.088,68.748,122.4L600,30.804
	L627.744,61.2l-165.24,150.756c-2.456,23.988-7.448,47.648-14.892,70.584l180.132,164.424L600,475.728L436.8,309.876
	c-3.852,7.294-8.504,14.137-13.872,20.4l-8.976,160.548h42.432v23.664h-44.88l-3.672,65.688h-23.46l-3.672-65.688h-44.064v-22.645
	h42.636l-9.18-160.548c-5.45-6.2-10.11-13.052-13.872-20.399L192,475.728l-27.744-29.579l180.132-163.2
	c-7.443-23.006-12.435-46.733-14.892-70.788L164.256,61.2L192,30.804 M192,0L192,0c-8.486,0.141-16.565,3.666-22.44,9.792
	l-27.744,29.58c-5.455,5.938-8.381,13.768-8.16,21.828c0.258,8.207,3.872,15.95,9.996,21.42l156.876,142.8
	c2.147,15.521,5.143,30.912,8.976,46.104l-165.852,151.98c-5.878,5.226-9.468,12.553-9.996,20.4
	c-0.33,8.199,2.604,16.195,8.16,22.235l27.744,30.601c5.909,6.051,13.983,9.5,22.44,9.588l0,0
	c8.113-0.007,15.891-3.236,21.624-8.977L341.532,368.22l5.304,93.024h-10.2c-16.899,0-30.6,13.7-30.6,30.6v23.664
	c0,16.9,13.7,30.601,30.6,30.601h15.096l2.244,36.924c0.763,16.227,14.151,28.985,30.396,28.968h23.46
	c16.242-0.079,29.632-12.755,30.6-28.968l2.04-36.72h14.893c16.899,0,30.6-13.7,30.6-30.601v-23.868c0-16.899-13.7-30.6-30.6-30.6
	h-10.2l5.304-93.024l127.908,128.929c5.659,5.873,13.468,9.188,21.624,9.18l0,0c8.364-0.158,16.31-3.689,22.032-9.792l27.744-29.376
	c5.555-6.04,8.489-14.036,8.159-22.236c-0.527-7.848-4.117-15.174-9.995-20.399L482.088,273.156
	c3.813-15.128,6.809-30.45,8.977-45.9l156.876-142.8c6.752-5.82,10.564-14.343,10.403-23.256c0.33-8.2-2.604-16.196-8.16-22.236
	L622.44,9.996C616.655,3.717,608.537,0.101,600,0l0,0c-8.156-0.008-15.965,3.307-21.624,9.18L487.188,102
	C470.868,38.76,432.313,14.892,396,14.892c-36.312,0-75.072,23.868-91.188,87.108L213.624,9.18C207.924,3.365,200.142,0.061,192,0z"
	/>
</svg>
